# Blender v2.93.0 OBJ File: ''
# www.blender.org
mtllib Arm.mtl
o Arm
v 0.500000 0.320000 -1.599998
v 0.400000 0.400000 -1.599998
v 0.400000 0.320000 -1.499997
v 0.400000 0.320000 -1.499997
v 0.400000 -0.320001 -1.499998
v 0.500000 -0.320001 -1.599998
v 0.500000 0.320000 -1.599998
v 0.500000 0.320000 -1.599998
v 0.500000 0.320000 -2.399996
v 0.400000 0.400000 -2.399996
v 0.400000 0.400000 -1.599998
v 0.500000 0.320000 -2.399996
v 0.500000 0.320000 -1.599998
v 0.500000 -0.320001 -2.399997
v 0.500000 -0.320001 -1.599998
v -0.400000 0.320000 -1.499997
v 0.400000 0.320000 -1.499997
v 0.400000 0.400000 -1.599998
v 0.400000 0.400000 -2.399996
v -0.400000 0.400000 -2.399997
v -0.400000 0.400000 -1.599998
v 0.400000 0.400000 -1.599998
v -0.400000 0.320000 -1.499997
v -0.400000 0.400000 -1.599998
v -0.500000 0.320000 -1.599998
v -0.400000 -0.320001 -1.499998
v -0.400000 0.320000 -1.499997
v -0.500000 0.320000 -1.599998
v -0.400000 0.320000 -1.499997
v 0.400000 0.400000 -1.599998
v -0.400000 0.400000 -1.599998
v 0.400000 -0.320001 -1.499998
v -0.400000 0.320000 -1.499997
v -0.400000 -0.320001 -1.499998
v 0.400000 0.320000 -1.499997
v -0.500000 0.320000 -1.599998
v -0.500000 -0.320001 -1.599998
v -0.400000 -0.320001 -1.499998
v -0.500000 0.320000 -2.399997
v -0.400000 0.400000 -1.599998
v -0.400000 0.400000 -2.399997
v -0.500000 0.320000 -1.599998
v -0.500000 -0.320001 -2.399997
v -0.500000 0.320000 -1.599998
v -0.500000 0.320000 -2.399997
v -0.500000 -0.320001 -1.599998
v -0.500000 -0.320001 -1.599998
v -0.400000 -0.400001 -1.599998
v -0.400000 -0.320001 -1.499998
v -0.500000 -0.320001 -2.399997
v -0.400000 -0.320001 -2.499997
v -0.400000 -0.400001 -2.399997
v 0.400000 -0.320001 -2.499997
v 0.500000 -0.320001 -2.399997
v 0.400000 -0.400001 -2.399997
v 0.400000 -0.320001 -1.499998
v 0.400000 -0.400001 -1.599998
v 0.500000 -0.320001 -1.599998
v -0.400000 -0.400001 -2.399997
v -0.500000 -0.320001 -1.599998
v -0.500000 -0.320001 -2.399997
v -0.400000 -0.400001 -1.599998
v -0.400000 -0.400001 -1.599998
v 0.400000 -0.400001 -1.599998
v 0.400000 -0.320001 -1.499998
v -0.400000 -0.320001 -1.499998
v -0.400000 -0.320001 -2.499997
v 0.400000 -0.320001 -2.499997
v 0.400000 -0.400001 -2.399997
v -0.400000 -0.400001 -2.399997
v 0.400000 -0.400001 -1.599998
v 0.400000 -0.400001 -2.399997
v 0.500000 -0.320001 -2.399997
v 0.500000 -0.320001 -1.599998
v 0.400000 -0.400001 -2.399997
v -0.400000 -0.400001 -1.599998
v -0.400000 -0.400001 -2.399997
v 0.400000 -0.400001 -1.599998
v -0.400000 0.320000 -2.499996
v -0.500000 0.320000 -2.399997
v -0.400000 0.400000 -2.399997
v 0.500000 0.320000 -2.399996
v 0.400000 0.320000 -2.499996
v 0.400000 0.400000 -2.399996
v -0.400000 0.320000 -2.499996
v -0.500000 -0.320001 -2.399997
v -0.500000 0.320000 -2.399997
v -0.400000 -0.320001 -2.499997
v 0.500000 0.320000 -2.399996
v 0.400000 -0.320001 -2.499997
v 0.400000 0.320000 -2.499996
v 0.500000 -0.320001 -2.399997
v -0.400000 0.400000 -2.399997
v 0.400000 0.400000 -2.399996
v 0.400000 0.320000 -2.499996
v -0.400000 0.320000 -2.499996
v 0.400000 0.320000 -2.499996
v -0.400000 -0.320001 -2.499997
v -0.400000 0.320000 -2.499996
v 0.400000 -0.320001 -2.499997
v 0.500000 0.319999 2.400002
v 0.400000 0.399999 2.400002
v 0.400000 0.319999 2.500002
v 0.400000 0.319999 2.500002
v 0.400000 -0.320002 2.500002
v 0.500000 -0.320002 2.400002
v 0.500000 0.319999 2.400002
v 0.500000 0.319999 2.400002
v 0.500000 0.319999 1.600002
v 0.400000 0.399999 1.600002
v 0.400000 0.399999 2.400002
v 0.500000 0.319999 1.600002
v 0.500000 0.319999 2.400002
v 0.500000 -0.320002 1.600002
v 0.500000 -0.320002 2.400002
v -0.400000 0.319999 2.500002
v 0.400000 0.319999 2.500002
v 0.400000 0.399999 2.400002
v 0.400000 0.399999 1.600002
v -0.400000 0.399999 1.600002
v -0.400000 0.399999 2.400002
v 0.400000 0.399999 2.400002
v -0.400000 0.319999 2.500002
v -0.400000 0.399999 2.400002
v -0.500000 0.319999 2.400002
v -0.400000 -0.320002 2.500002
v -0.400000 0.319999 2.500002
v -0.500000 0.319999 2.400002
v -0.400000 0.319999 2.500002
v 0.400000 0.399999 2.400002
v -0.400000 0.399999 2.400002
v 0.400000 -0.320002 2.500002
v -0.400000 0.319999 2.500002
v -0.400000 -0.320002 2.500002
v 0.400000 0.319999 2.500002
v -0.500000 0.319999 2.400002
v -0.500000 -0.320002 2.400002
v -0.400000 -0.320002 2.500002
v -0.500000 0.319999 1.600002
v -0.400000 0.399999 2.400002
v -0.400000 0.399999 1.600002
v -0.500000 0.319999 2.400002
v -0.500000 -0.320002 1.600002
v -0.500000 0.319999 2.400002
v -0.500000 0.319999 1.600002
v -0.500000 -0.320002 2.400002
v -0.500000 -0.320002 2.400002
v -0.400000 -0.400002 2.400002
v -0.400000 -0.320002 2.500002
v -0.500000 -0.320002 1.600002
v -0.400000 -0.320002 1.500002
v -0.400000 -0.400002 1.600002
v 0.400000 -0.320002 1.500002
v 0.500000 -0.320002 1.600002
v 0.400000 -0.400002 1.600002
v 0.400000 -0.320002 2.500002
v 0.400000 -0.400002 2.400002
v 0.500000 -0.320002 2.400002
v -0.400000 -0.400002 1.600002
v -0.500000 -0.320002 2.400002
v -0.500000 -0.320002 1.600002
v -0.400000 -0.400002 2.400002
v -0.400000 -0.400002 2.400002
v 0.400000 -0.400002 2.400002
v 0.400000 -0.320002 2.500002
v -0.400000 -0.320002 2.500002
v -0.400000 -0.320002 1.500002
v 0.400000 -0.320002 1.500002
v 0.400000 -0.400002 1.600002
v -0.400000 -0.400002 1.600002
v 0.400000 -0.400002 2.400002
v 0.400000 -0.400002 1.600002
v 0.500000 -0.320002 1.600002
v 0.500000 -0.320002 2.400002
v 0.400000 -0.400002 1.600002
v -0.400000 -0.400002 2.400002
v -0.400000 -0.400002 1.600002
v 0.400000 -0.400002 2.400002
v -0.400000 0.319999 1.500002
v -0.500000 0.319999 1.600002
v -0.400000 0.399999 1.600002
v 0.500000 0.319999 1.600002
v 0.400000 0.319999 1.500002
v 0.400000 0.399999 1.600002
v -0.400000 0.319999 1.500002
v -0.500000 -0.320002 1.600002
v -0.500000 0.319999 1.600002
v -0.400000 -0.320002 1.500002
v 0.500000 0.319999 1.600002
v 0.400000 -0.320002 1.500002
v 0.400000 0.319999 1.500002
v 0.500000 -0.320002 1.600002
v -0.400000 0.399999 1.600002
v 0.400000 0.399999 1.600002
v 0.400000 0.319999 1.500002
v -0.400000 0.319999 1.500002
v 0.400000 0.319999 1.500002
v -0.400000 -0.320002 1.500002
v -0.400000 0.319999 1.500002
v 0.400000 -0.320002 1.500002
v 0.499651 0.319999 1.999652
v 0.399651 0.399999 1.999652
v 0.399651 0.319999 2.499652
v 0.399651 0.319999 2.499652
v 0.399651 -0.320002 2.499652
v 0.499651 -0.320002 1.999652
v 0.499651 0.319999 1.999652
v 0.499651 0.319999 1.999652
v 0.499651 0.320000 -2.000348
v 0.399651 0.400000 -2.000348
v 0.399651 0.399999 1.999652
v 0.499651 0.320000 -2.000348
v 0.499651 0.319999 1.999652
v 0.499651 -0.320001 -2.000348
v 0.499651 -0.320002 1.999652
v -0.400350 0.319999 2.499642
v 0.399651 0.319999 2.499652
v 0.399651 0.399999 1.999652
v 0.399651 0.400000 -2.000348
v -0.400350 0.400000 -2.000358
v -0.400350 0.399999 1.999642
v 0.399651 0.399999 1.999652
v -0.400350 0.319999 2.499642
v -0.400350 0.399999 1.999642
v -0.500350 0.319999 1.999642
v -0.400350 -0.320002 2.499652
v -0.400350 0.319999 2.499642
v -0.500350 0.319999 1.999642
v -0.400350 0.319999 2.499642
v 0.399651 0.399999 1.999652
v -0.400350 0.399999 1.999642
v 0.399651 -0.320002 2.499652
v -0.400350 0.319999 2.499642
v -0.400350 -0.320002 2.499652
v 0.399651 0.319999 2.499652
v -0.500350 0.319999 1.999642
v -0.500350 -0.320002 1.999652
v -0.400350 -0.320002 2.499652
v -0.500350 0.320000 -2.000358
v -0.400350 0.399999 1.999642
v -0.400350 0.400000 -2.000358
v -0.500350 0.319999 1.999642
v -0.500350 -0.320001 -2.000348
v -0.500350 0.319999 1.999642
v -0.500350 0.320000 -2.000358
v -0.500350 -0.320002 1.999652
v -0.500350 -0.320002 1.999652
v -0.400350 -0.400002 1.999652
v -0.400350 -0.320002 2.499652
v -0.500350 -0.320001 -2.000348
v -0.400350 -0.320001 -2.500350
v -0.400350 -0.400001 -2.000348
v 0.399651 -0.320001 -2.500350
v 0.499651 -0.320001 -2.000348
v 0.399651 -0.400001 -2.000348
v 0.399651 -0.320002 2.499652
v 0.399651 -0.400002 1.999652
v 0.499651 -0.320002 1.999652
v -0.400350 -0.400001 -2.000348
v -0.500350 -0.320002 1.999652
v -0.500350 -0.320001 -2.000348
v -0.400350 -0.400002 1.999652
v -0.400350 -0.400002 1.999652
v 0.399651 -0.400002 1.999652
v 0.399651 -0.320002 2.499652
v -0.400350 -0.320002 2.499652
v -0.400350 -0.320001 -2.500350
v 0.399651 -0.320001 -2.500350
v 0.399651 -0.400001 -2.000348
v -0.400350 -0.400001 -2.000348
v 0.399651 -0.400002 1.999652
v 0.399651 -0.400001 -2.000348
v 0.499651 -0.320001 -2.000348
v 0.499651 -0.320002 1.999652
v 0.399651 -0.400001 -2.000348
v -0.400350 -0.400002 1.999652
v -0.400350 -0.400001 -2.000348
v 0.399651 -0.400002 1.999652
v -0.400350 0.320000 -2.500350
v -0.500350 0.320000 -2.000358
v -0.400350 0.400000 -2.000358
v 0.499651 0.320000 -2.000348
v 0.399651 0.320000 -2.500350
v 0.399651 0.400000 -2.000348
v -0.400350 0.320000 -2.500350
v -0.500350 -0.320001 -2.000348
v -0.500350 0.320000 -2.000358
v -0.400350 -0.320001 -2.500350
v 0.499651 0.320000 -2.000348
v 0.399651 -0.320001 -2.500350
v 0.399651 0.320000 -2.500350
v 0.499651 -0.320001 -2.000348
v -0.400350 0.400000 -2.000358
v 0.399651 0.400000 -2.000348
v 0.399651 0.320000 -2.500350
v -0.400350 0.320000 -2.500350
v 0.399651 0.320000 -2.500350
v -0.400350 -0.320001 -2.500350
v -0.400350 0.320000 -2.500350
v 0.399651 -0.320001 -2.500350
vt -0.015247 1.617650
vt -0.015247 1.721650
vt -0.145247 1.617650
vt -0.145247 1.617650
vt -0.145247 0.785650
vt -0.015247 0.785650
vt -0.015247 1.617650
vt -0.015247 1.617650
vt 1.024750 1.617650
vt 1.024750 1.721650
vt -0.015247 1.721650
vt 1.024750 1.617650
vt -0.015247 1.617650
vt 1.024750 0.785650
vt -0.015247 0.785650
vt 1.024750 1.851650
vt -0.015247 1.851650
vt -0.015247 1.721650
vt -0.015247 0.681651
vt 1.024750 0.681650
vt 1.024750 1.721650
vt -0.015247 1.721650
vt -0.015247 1.617650
vt -0.015247 1.721650
vt -0.145247 1.617650
vt -0.015247 0.785650
vt -0.015247 1.617650
vt -0.145247 1.617650
vt -0.015247 1.617650
vt 1.024750 1.721650
vt -0.015247 1.721650
vt 1.024750 0.785650
vt -0.015247 1.617650
vt -0.015247 0.785650
vt 1.024750 1.617650
vt 1.024750 1.617650
vt 1.024750 0.785650
vt 1.154750 0.785650
vt -0.015247 1.617650
vt 1.024750 1.721650
vt -0.015247 1.721650
vt 1.024750 1.617650
vt -0.015247 0.785650
vt 1.024750 1.617650
vt -0.015247 1.617650
vt 1.024750 0.785650
vt -0.145247 1.721650
vt -0.015247 1.721650
vt -0.015247 1.851650
vt -0.145247 0.681651
vt -0.015247 0.551651
vt -0.015247 0.681651
vt 1.024750 0.551651
vt 1.154750 0.681651
vt 1.024750 0.681651
vt 1.024750 1.851650
vt 1.024750 1.721650
vt 1.154750 1.721650
vt -0.015247 0.681651
vt -0.145247 1.721650
vt -0.145247 0.681651
vt -0.015247 1.721650
vt -0.015247 1.721650
vt 1.024750 1.721650
vt 1.024750 1.851650
vt -0.015247 1.851650
vt -0.015247 0.551651
vt 1.024750 0.551651
vt 1.024750 0.681651
vt -0.015247 0.681651
vt 1.024750 1.721650
vt 1.024750 0.681651
vt 1.154750 0.681651
vt 1.154750 1.721650
vt 1.024750 0.681651
vt -0.015247 1.721650
vt -0.015247 0.681651
vt 1.024750 1.721650
vt 1.024750 1.617650
vt 1.154750 1.617650
vt 1.024750 1.721650
vt -0.145247 1.617650
vt -0.015247 1.617650
vt -0.015247 1.721650
vt 1.024750 1.617650
vt 1.154750 0.785650
vt 1.154750 1.617650
vt 1.024750 0.785650
vt -0.145247 1.617650
vt -0.015247 0.785650
vt -0.015247 1.617650
vt -0.145247 0.785650
vt 1.024750 1.721650
vt -0.015247 1.721650
vt -0.015247 1.617650
vt 1.024750 1.617650
vt -0.015247 1.617650
vt 1.024750 0.785650
vt 1.024750 1.617650
vt -0.015247 0.785650
vt 0.039496 1.950380
vt 0.039496 2.054380
vt -0.090504 1.950380
vt -0.090504 1.950380
vt -0.090504 1.118380
vt 0.039496 1.118380
vt 0.039496 1.950380
vt 0.039496 1.950380
vt 1.079500 1.950380
vt 1.079500 2.054380
vt 0.039496 2.054380
vt 1.079500 1.950380
vt 0.039496 1.950380
vt 1.079500 1.118380
vt 0.039496 1.118380
vt 1.079500 2.184380
vt 0.039496 2.184380
vt 0.039496 2.054380
vt 0.039496 1.014380
vt 1.079500 1.014380
vt 1.079500 2.054380
vt 0.039496 2.054380
vt 0.039496 1.950380
vt 0.039496 2.054380
vt -0.090504 1.950380
vt 0.039496 1.118380
vt 0.039496 1.950380
vt -0.090504 1.950380
vt 0.039496 1.950380
vt 1.079500 2.054380
vt 0.039496 2.054380
vt 1.079500 1.118380
vt 0.039496 1.950380
vt 0.039496 1.118380
vt 1.079500 1.950380
vt 1.079490 1.950380
vt 1.079500 1.118380
vt 1.209500 1.118380
vt 0.039496 1.950380
vt 1.079490 2.054380
vt 0.039496 2.054380
vt 1.079490 1.950380
vt 0.039496 1.118380
vt 1.079490 1.950380
vt 0.039496 1.950380
vt 1.079500 1.118380
vt -0.090504 2.054380
vt 0.039496 2.054380
vt 0.039496 2.184380
vt -0.090504 1.014380
vt 0.039496 0.884380
vt 0.039496 1.014380
vt 1.079500 0.884380
vt 1.209500 1.014380
vt 1.079500 1.014380
vt 1.079500 2.184380
vt 1.079500 2.054380
vt 1.209500 2.054380
vt 0.039496 1.014380
vt -0.090504 2.054380
vt -0.090504 1.014380
vt 0.039496 2.054380
vt 0.039496 2.054380
vt 1.079500 2.054380
vt 1.079500 2.184380
vt 0.039496 2.184380
vt 0.039496 0.884380
vt 1.079500 0.884380
vt 1.079500 1.014380
vt 0.039496 1.014380
vt 1.079500 2.054380
vt 1.079500 1.014380
vt 1.209500 1.014380
vt 1.209500 2.054380
vt 1.079500 1.014380
vt 0.039496 2.054380
vt 0.039496 1.014380
vt 1.079500 2.054380
vt 1.079500 1.950380
vt 1.209500 1.950380
vt 1.079500 2.054380
vt -0.090504 1.950380
vt 0.039496 1.950380
vt 0.039496 2.054380
vt 1.079500 1.950380
vt 1.209500 1.118380
vt 1.209500 1.950380
vt 1.079500 1.118380
vt -0.090504 1.950380
vt 0.039496 1.118380
vt 0.039496 1.950380
vt -0.090504 1.118380
vt 1.079500 2.054380
vt 0.039496 2.054380
vt 0.039496 1.950380
vt 1.079500 1.950380
vt 0.039496 1.950380
vt 1.079500 1.118380
vt 1.079500 1.950380
vt 0.039496 1.118380
vt -0.525490 2.257990
vt -0.525490 2.361990
vt -1.175490 2.257990
vt -1.175490 2.257990
vt -1.175490 1.425990
vt -0.525490 1.425990
vt -0.525490 2.257990
vt -0.525490 2.257990
vt 4.674510 2.257990
vt 4.674510 2.361990
vt -0.525490 2.361990
vt 4.674510 2.257990
vt -0.525490 2.257990
vt 4.674510 1.425990
vt -0.525490 1.425990
vt 2.594510 5.091990
vt 1.554510 5.091990
vt 1.554510 4.441990
vt 1.554510 -0.758011
vt 2.594510 -0.758014
vt 2.594510 4.441990
vt 1.554510 4.441990
vt 1.554510 2.257990
vt 1.554510 2.361990
vt 1.424510 2.257990
vt 1.554510 1.425990
vt 1.554510 2.257990
vt 1.424510 2.257990
vt 1.554510 2.257990
vt 2.594510 2.361990
vt 1.554510 2.361990
vt 2.594510 1.425990
vt 1.554510 2.257990
vt 1.554510 1.425990
vt 2.594510 2.257990
vt 4.674510 2.257990
vt 4.674510 1.425990
vt 5.324510 1.425990
vt -0.525493 2.257990
vt 4.674510 2.361990
vt -0.525493 2.361990
vt 4.674510 2.257990
vt -0.525490 1.425990
vt 4.674510 2.257990
vt -0.525493 2.257990
vt 4.674510 1.425990
vt 1.424510 4.441990
vt 1.554510 4.441990
vt 1.554510 5.091990
vt 1.424510 -0.758011
vt 1.554510 -1.408010
vt 1.554510 -0.758011
vt 2.594510 -1.408010
vt 2.724510 -0.758011
vt 2.594510 -0.758011
vt 2.594510 5.091990
vt 2.594510 4.441990
vt 2.724510 4.441990
vt 1.554510 -0.758011
vt 1.424510 4.441990
vt 1.424510 -0.758011
vt 1.554510 4.441990
vt 1.554510 4.441990
vt 2.594510 4.441990
vt 2.594510 5.091990
vt 1.554510 5.091990
vt 1.554510 -1.408010
vt 2.594510 -1.408010
vt 2.594510 -0.758011
vt 1.554510 -0.758011
vt 2.594510 4.441990
vt 2.594510 -0.758011
vt 2.724510 -0.758011
vt 2.724510 4.441990
vt 2.594510 -0.758011
vt 1.554510 4.441990
vt 1.554510 -0.758011
vt 2.594510 4.441990
vt 2.594510 2.257990
vt 2.724510 2.257990
vt 2.594510 2.361990
vt 1.424510 2.257990
vt 1.554510 2.257990
vt 1.554510 2.361990
vt 2.594510 2.257990
vt 2.724510 1.425990
vt 2.724510 2.257990
vt 2.594510 1.425990
vt 1.424510 2.257990
vt 1.554510 1.425990
vt 1.554510 2.257990
vt 1.424510 1.425990
vt 2.594510 2.361990
vt 1.554510 2.361990
vt 1.554510 2.257990
vt 2.594510 2.257990
vt 1.554510 2.257990
vt 2.594510 1.425990
vt 2.594510 2.257990
vt 1.554510 1.425990
vn 0.5291 0.6634 0.5291
vn 0.7071 -0.0000 0.7071
vn 0.6237 0.7817 0.0000
vn 1.0000 0.0000 0.0000
vn -0.0000 0.7817 0.6237
vn 0.0000 1.0000 0.0000
vn -0.5291 0.6634 0.5291
vn -0.7071 -0.0000 0.7071
vn 0.0000 -0.0000 1.0000
vn -0.6237 0.7816 -0.0000
vn -0.6238 0.7816 0.0000
vn -1.0000 0.0000 0.0000
vn -0.5291 -0.6634 0.5291
vn -0.5290 -0.6635 -0.5291
vn 0.5291 -0.6634 -0.5291
vn 0.5291 -0.6634 0.5291
vn -0.6237 -0.7816 0.0000
vn -0.6237 -0.7817 0.0000
vn 0.0000 -0.7817 0.6236
vn -0.0000 -0.7817 0.6237
vn 0.0000 -0.7816 0.6238
vn -0.0000 -0.7816 -0.6237
vn 0.0000 -0.7817 -0.6237
vn -0.0000 -0.7817 -0.6236
vn 0.6237 -0.7817 -0.0000
vn 0.6238 -0.7816 -0.0000
vn 0.6236 -0.7817 0.0000
vn 0.0000 -1.0000 0.0000
vn -0.5291 0.6634 -0.5291
vn 0.5291 0.6634 -0.5291
vn -0.7071 -0.0000 -0.7071
vn 0.7071 0.0000 -0.7071
vn -0.0000 0.7816 -0.6238
vn -0.0000 0.7817 -0.6237
vn 0.0000 0.0000 -1.0000
vn 0.5291 0.6635 0.5291
vn 0.6236 0.7817 0.0000
vn 0.6237 0.7816 0.0000
vn -0.0000 0.7816 0.6237
vn -0.6237 0.7817 -0.0000
vn -0.5291 -0.6634 -0.5291
vn -0.6238 -0.7816 0.0000
vn -0.0000 -0.7816 0.6237
vn 0.6237 -0.7816 0.0000
vn 0.5291 0.6635 -0.5291
vn 0.6226 0.7723 0.1261
vn 0.9806 0.0000 0.1961
vn -0.0000 0.9874 0.1580
vn -0.6226 0.7723 0.1261
vn -0.9806 0.0000 0.1961
vn -0.6236 0.7817 0.0000
vn -0.6226 -0.7723 0.1261
vn -0.6226 -0.7723 -0.1261
vn 0.6226 -0.7723 -0.1261
vn 0.6226 -0.7723 0.1261
vn -0.6236 -0.7817 -0.0000
vn 0.0000 -0.9874 0.1580
vn 0.0000 -0.9874 -0.1580
vn -0.6226 0.7723 -0.1261
vn 0.6226 0.7723 -0.1261
vn -0.9806 -0.0000 -0.1961
vn 0.9806 0.0000 -0.1961
vn 0.0000 0.9874 -0.1580
usemtl Pobot1Mtl.002
s 1
f 1/1/1 2/2/1 3/3/1
f 4/4/2 5/5/2 6/6/2
f 6/6/2 7/7/2 4/4/2
f 8/8/3 9/9/3 10/10/3
f 10/10/3 11/11/3 8/8/3
f 12/12/4 13/13/4 14/14/4
f 14/14/4 13/13/4 15/15/4
f 16/16/5 17/17/5 18/18/5
f 19/19/6 20/20/6 21/21/6
f 19/19/6 21/21/6 22/22/6
f 23/23/7 24/24/7 25/25/7
f 26/26/8 27/27/8 28/28/8
f 29/29/5 30/30/5 31/31/5
f 32/32/9 33/33/9 34/34/9
f 33/33/9 32/32/9 35/35/9
f 36/36/8 37/37/8 38/38/8
f 39/39/10 40/40/10 41/41/11
f 40/40/10 39/39/10 42/42/10
f 43/43/12 44/44/12 45/45/12
f 44/44/12 43/43/12 46/46/12
f 47/47/13 48/48/13 49/49/13
f 50/50/14 51/51/14 52/52/14
f 53/53/15 54/54/15 55/55/15
f 56/56/16 57/57/16 58/58/16
f 59/59/17 60/60/18 61/61/18
f 60/60/18 59/59/17 62/62/18
f 63/63/19 64/64/20 65/65/21
f 63/63/19 65/65/21 66/66/20
f 67/67/22 68/68/23 69/69/24
f 67/67/22 69/69/24 70/70/23
f 71/71/25 72/72/25 73/73/26
f 73/73/26 74/74/27 71/71/25
f 75/75/28 76/76/28 77/77/28
f 76/76/28 75/75/28 78/78/28
f 79/79/29 80/80/29 81/81/29
f 82/82/30 83/83/30 84/84/30
f 85/85/31 86/86/31 87/87/31
f 86/86/31 85/85/31 88/88/31
f 89/89/32 90/90/32 91/91/32
f 90/90/32 89/89/32 92/92/32
f 93/93/33 94/94/34 95/95/34
f 93/93/33 95/95/34 96/96/34
f 97/97/35 98/98/35 99/99/35
f 98/98/35 97/97/35 100/100/35
f 101/101/36 102/102/36 103/103/36
f 104/104/2 105/105/2 106/106/2
f 106/106/2 107/107/2 104/104/2
f 108/108/37 109/109/38 110/110/3
f 110/110/3 111/111/3 108/108/37
f 112/112/4 113/113/4 114/114/4
f 114/114/4 113/113/4 115/115/4
f 116/116/39 117/117/39 118/118/39
f 119/119/6 120/120/6 121/121/6
f 119/119/6 121/121/6 122/122/6
f 123/123/7 124/124/7 125/125/7
f 126/126/8 127/127/8 128/128/8
f 129/129/5 130/130/5 131/131/5
f 132/132/9 133/133/9 134/134/9
f 133/133/9 132/132/9 135/135/9
f 136/136/8 137/137/8 138/138/8
f 139/139/11 140/140/40 141/141/40
f 140/140/40 139/139/11 142/142/40
f 143/143/12 144/144/12 145/145/12
f 144/144/12 143/143/12 146/146/12
f 147/147/13 148/148/13 149/149/13
f 150/150/41 151/151/41 152/152/41
f 153/153/15 154/154/15 155/155/15
f 156/156/16 157/157/16 158/158/16
f 159/159/18 160/160/42 161/161/18
f 160/160/42 159/159/18 162/162/18
f 163/163/20 164/164/43 165/165/19
f 163/163/20 165/165/19 166/166/20
f 167/167/23 168/168/23 169/169/23
f 167/167/23 169/169/23 170/170/23
f 171/171/25 172/172/25 173/173/27
f 173/173/27 174/174/44 171/171/25
f 175/175/28 176/176/28 177/177/28
f 176/176/28 175/175/28 178/178/28
f 179/179/29 180/180/29 181/181/29
f 182/182/45 183/183/45 184/184/45
f 185/185/31 186/186/31 187/187/31
f 186/186/31 185/185/31 188/188/31
f 189/189/32 190/190/32 191/191/32
f 190/190/32 189/189/32 192/192/32
f 193/193/34 194/194/34 195/195/34
f 193/193/34 195/195/34 196/196/34
f 197/197/35 198/198/35 199/199/35
f 198/198/35 197/197/35 200/200/35
f 201/201/46 202/202/46 203/203/46
f 204/204/47 205/205/47 206/206/47
f 206/206/47 207/207/47 204/204/47
f 208/208/3 209/209/3 210/210/38
f 210/210/38 211/211/38 208/208/3
f 212/212/4 213/213/4 214/214/4
f 214/214/4 213/213/4 215/215/4
f 216/216/48 217/217/48 218/218/48
f 219/219/6 220/220/6 221/221/6
f 219/219/6 221/221/6 222/222/6
f 223/223/49 224/224/49 225/225/49
f 226/226/50 227/227/50 228/228/50
f 229/229/48 230/230/48 231/231/48
f 232/232/9 233/233/9 234/234/9
f 233/233/9 232/232/9 235/235/9
f 236/236/50 237/237/50 238/238/50
f 239/239/51 240/240/10 241/241/40
f 240/240/10 239/239/51 242/242/51
f 243/243/12 244/244/12 245/245/12
f 244/244/12 243/243/12 246/246/12
f 247/247/52 248/248/52 249/249/52
f 250/250/53 251/251/53 252/252/53
f 253/253/54 254/254/54 255/255/54
f 256/256/55 257/257/55 258/258/55
f 259/259/42 260/260/18 261/261/56
f 260/260/18 259/259/42 262/262/18
f 263/263/57 264/264/57 265/265/57
f 263/263/57 265/265/57 266/266/57
f 267/267/58 268/268/58 269/269/58
f 267/267/58 269/269/58 270/270/58
f 271/271/25 272/272/25 273/273/25
f 273/273/25 274/274/27 271/271/25
f 275/275/28 276/276/28 277/277/28
f 276/276/28 275/275/28 278/278/28
f 279/279/59 280/280/59 281/281/59
f 282/282/60 283/283/60 284/284/60
f 285/285/61 286/286/61 287/287/61
f 286/286/61 285/285/61 288/288/61
f 289/289/62 290/290/62 291/291/62
f 290/290/62 289/289/62 292/292/62
f 293/293/63 294/294/63 295/295/63
f 293/293/63 295/295/63 296/296/63
f 297/297/35 298/298/35 299/299/35
f 298/298/35 297/297/35 300/300/35
