# Blender v2.93.0 OBJ File: ''
# www.blender.org
mtllib Joint.mtl
o Joint
v 0.549514 -0.299980 -0.000437
v 0.549514 -0.269320 0.232503
v 0.549514 -0.269310 0.232507
v 0.549514 -0.269320 0.232503
v 0.549514 -0.299980 -0.000437
v 0.549516 -0.269310 -0.233398
v 0.549516 -0.269310 -0.233398
v 0.549512 -0.299980 -0.000440
v 0.549514 -0.179400 -0.450466
v 0.549512 -0.179400 -0.450466
v 0.549514 -0.179400 -0.450466
v 0.549514 0.150000 -0.779863
v 0.549514 -0.036400 -0.636832
v 0.549512 -0.036400 -0.636832
v 0.549514 -0.036400 -0.636832
v 0.549514 0.150000 -0.779863
v 0.549514 -0.036400 -0.636832
v 0.549512 -0.036400 -0.636832
v 0.549514 0.367070 -0.869775
v 0.549514 0.150010 -0.779863
v 0.549514 0.367070 -0.869775
v 0.549514 0.600010 -0.900441
v 0.549512 0.600010 -0.900441
v 0.549514 0.600010 -0.900441
v 0.549514 1.469340 -0.233383
v 0.549514 0.832950 -0.869771
v 0.549514 0.832950 -0.869771
v 0.549514 1.050020 -0.779863
v 0.549514 0.150000 0.778971
v 0.549514 0.367070 0.868881
v 0.549514 0.367080 0.868881
v 0.549514 0.367070 0.868881
v 0.549514 0.150000 0.778971
v 0.549514 0.600010 0.899551
v 0.549514 -0.036380 0.635951
v 0.549514 0.150010 0.778971
v 0.549514 -0.036380 0.635951
v 0.549514 -0.179410 0.449556
v 0.549514 -0.179410 0.449556
v 0.549514 -0.036380 0.635951
v 0.549512 -0.036380 0.635951
v -0.550480 1.469340 -0.233383
v -0.550480 1.500000 -0.000432
v 0.549514 1.469340 -0.233383
v -0.550480 1.500000 -0.000432
v -0.550480 1.469340 -0.233383
v -0.550480 1.469340 0.232489
v -0.550480 1.379420 -0.450462
v 0.549514 1.379420 -0.450462
v -0.550480 1.379420 -0.450462
v -0.550480 1.236410 -0.636839
v -0.550480 1.236410 -0.636839
v -0.550480 1.050020 -0.779863
v -0.550480 1.236410 -0.636839
v 0.549514 1.050020 -0.779863
v -0.550480 1.050020 -0.779863
v -0.550480 0.832950 -0.869771
v -0.550480 0.832950 -0.869771
v -0.550480 0.600020 -0.900438
v -0.550480 0.600020 -0.900438
v 0.549512 0.600020 -0.900441
v -0.550480 0.832940 0.868881
v -0.550480 0.600020 0.899551
v 0.549512 0.600020 0.899551
v -0.550480 0.600020 0.899551
v -0.550480 0.832940 0.868881
v -0.550480 1.050010 0.778971
v -0.550480 1.050010 0.778971
v 0.549514 0.832940 0.868881
v -0.550480 1.236390 0.635951
v 0.549514 1.236390 0.635951
v -0.550480 1.236390 0.635951
v -0.550480 1.379430 0.449548
v -0.550480 1.379430 0.449548
v -0.550480 1.236390 0.635951
v 0.549514 1.379430 0.449548
v -0.550480 1.469340 0.232489
v 0.549514 1.469340 0.232489
v -0.550480 0.600010 0.899551
v -0.550480 0.600020 0.899551
v -0.550480 -1.499970 0.899550
v -0.550480 0.600010 0.899551
v -0.550480 0.600010 0.899551
v 0.549512 0.600000 0.899551
v 0.549514 0.600020 0.899551
v -0.550480 0.600020 -0.900441
v -0.550480 -1.499970 0.899550
v -0.550480 0.600020 -0.900441
v -0.550480 0.600020 0.899551
v 0.549514 0.600020 0.899551
v -0.550480 0.600020 -0.900445
v -0.550480 0.600020 -0.900438
v 0.549512 0.600020 -0.900441
v 0.549512 0.600000 0.899551
v 0.549514 0.600020 0.899551
v -0.550480 -1.499970 -0.900442
v -0.550480 0.600020 -0.900441
v -0.550480 0.600020 -0.900445
v -0.550480 -1.499970 -0.900442
v -0.550480 -1.499970 0.899550
v -0.550480 -1.499970 -0.900442
v 0.549514 -1.499970 0.899550
v 0.549514 0.600020 -0.900441
v 0.549514 -1.499970 0.899550
v 0.549514 -1.499970 -0.900442
v 0.549514 -1.499970 -0.900442
v 0.549514 1.500000 -0.000432
v 0.549514 1.236390 0.635951
v 0.549514 1.050010 0.778971
v 0.549514 0.600010 0.899551
v 0.549514 0.600020 0.899551
v 0.549512 0.600020 0.899551
v 0.549512 0.600020 0.899551
v 0.549514 0.367080 0.868881
v 0.549512 0.600000 0.899551
v 0.549514 -1.499970 0.899550
v 0.549514 0.150010 0.778971
v 0.549512 -0.036380 0.635951
v 0.549512 -0.036380 0.635951
v 0.549512 -0.179400 0.449556
v 0.549514 -0.269310 0.232507
v 0.549512 -0.179400 0.449556
v 0.549512 -0.299980 -0.000440
v 0.549514 -1.499970 -0.900442
v 0.549512 -0.269320 -0.233403
v 0.549512 -0.269320 -0.233403
v 0.549512 -0.179400 -0.450466
v 0.549512 -0.036400 -0.636832
v 0.549514 0.150010 -0.779863
v 0.549512 0.367070 -0.869771
v 0.549512 0.367070 -0.869771
v 0.549514 0.600020 -0.900441
v 0.549512 0.600010 -0.900441
v 0.549512 0.600020 -0.900441
v 0.549514 0.600020 -0.900441
v 0.549514 1.236410 -0.636839
v 0.549514 1.236410 -0.636839
v 0.549514 1.236410 -0.636839
v 0.549514 1.379420 -0.450462
v 0.549514 1.469340 0.232489
v 0.549514 1.500000 -0.000432
v 0.549514 1.379430 0.449548
v 0.549514 1.050010 0.778971
v 0.549514 1.236390 0.635951
v 0.549514 0.832940 0.868881
vt -0.350937 1.781620
vt -0.350937 2.014560
vt -0.350937 2.014560
vt -1.133890 1.512280
vt -0.900946 1.481610
vt -0.667983 1.512280
vt -0.350935 1.548660
vt -0.350939 1.781610
vt -0.350937 1.331590
vt -0.350939 1.331590
vt -0.450916 1.602190
vt -0.121518 1.931590
vt -0.350937 1.145220
vt -0.350939 1.145220
vt -0.264550 1.745190
vt -1.450930 1.931590
vt -1.450930 1.745190
vt -1.450930 1.745190
vt -1.450930 2.148660
vt -1.450930 1.931600
vt -0.031606 2.148660
vt -1.450930 2.381600
vt -1.450930 2.381600
vt -0.000940 2.381600
vt -0.667998 3.250930
vt -1.450930 2.614540
vt -0.031610 2.614540
vt -0.121518 2.831610
vt -0.350937 1.931590
vt -0.350937 2.148660
vt -0.350937 2.148670
vt -1.770260 2.148660
vt -1.680350 1.931590
vt -1.800930 2.381600
vt -0.350937 1.745210
vt -0.350937 1.931600
vt -1.537330 1.745210
vt -1.350940 1.602180
vt -0.350937 2.231610
vt -0.350937 2.418010
vt -0.350939 2.418000
vt -0.350937 1.548670
vt -0.350937 1.781620
vt -1.450930 1.548670
vt -0.900919 3.281590
vt -1.133870 3.250930
vt -0.667998 3.250930
vt -0.350935 1.331590
vt -1.450930 1.331590
vt -1.350950 3.161010
vt -1.537330 3.018000
vt -0.350935 1.145210
vt -0.350935 2.831610
vt -0.350935 3.018000
vt -1.450930 2.831610
vt -1.680350 2.831610
vt -0.350937 2.614540
vt -1.770260 2.614540
vt -1.800930 2.381610
vt -0.350937 2.381610
vt -1.450930 2.381610
vt -1.450930 2.614540
vt -1.450930 2.381610
vt -0.350939 2.381610
vt -0.000936 2.381610
vt -0.031602 2.614540
vt -0.121518 2.831610
vt -1.450930 2.831610
vt -0.350937 2.614540
vt -1.450930 3.017980
vt -0.350937 3.017980
vt -0.264535 3.017980
vt -0.450939 3.161030
vt -0.350937 2.231600
vt -0.350935 2.418010
vt -1.450930 2.231600
vt -0.350935 2.014540
vt -1.450930 2.014540
vt -1.450930 2.381600
vt -1.450930 2.381610
vt -1.450930 0.281620
vt -1.450930 2.381600
vt -0.350937 2.381610
vt -1.800930 2.381610
vt -0.000936 0.281620
vt -0.350937 0.881609
vt -0.350937 0.881616
vt -1.450930 0.881613
vt -0.350935 2.681610
vt -0.350939 2.381600
vt -0.350935 0.281620
vt -0.350935 2.381610
vt -0.350937 2.381610
vt -1.800930 0.281620
vt -1.450930 2.681610
vt -1.450930 0.881613
vt -0.350937 2.681610
vt -1.450930 2.381610
vt -0.350937 0.281620
vt -1.450930 0.281620
vt -0.350937 0.881613
vt -1.450930 1.781620
vt -1.450930 2.418010
vt -0.350937 2.831610
vt -0.350937 2.381600
vt -1.450930 2.681600
vt -1.450930 2.681610
vt -0.350939 2.381600
vt -1.770270 2.148670
vt -1.800930 2.381600
vt -1.800930 0.281620
vt -1.680350 1.931600
vt -1.537330 1.745210
vt -0.350939 1.745210
vt -1.350940 1.602190
vt -1.133890 1.512280
vt -0.350939 2.231610
vt -0.900942 1.481610
vt -0.000940 0.281620
vt -0.667979 1.512280
vt -0.350939 1.548650
vt -0.450916 1.602190
vt -0.264550 1.745190
vt -0.121518 1.931600
vt -0.031610 2.148660
vt -1.450930 2.148660
vt -0.000940 2.381610
vt -0.000940 2.381600
vt -0.000940 2.381610
vt -1.450930 0.881613
vt -1.450930 1.145210
vt -1.450930 3.018000
vt -0.264542 3.018000
vt -0.450920 3.161010
vt -1.133870 3.250930
vt -0.900950 3.281590
vt -1.350930 3.161030
vt -1.680350 2.831610
vt -1.537330 3.017980
vt -1.770270 2.614540
vt -0.350935 0.881613
vn 0.0047 -1.0000 -0.0040
vn 0.0047 -0.9658 0.2592
vn 0.0023 -0.9659 0.2591
vn 1.0000 -0.0000 0.0000
vn -0.0083 -0.9660 -0.2584
vn 0.0154 -0.9998 -0.0118
vn 0.0000 -0.8628 -0.5056
vn -0.0000 -0.7018 -0.7124
vn 0.0000 -0.5029 -0.8643
vn -0.0000 -0.6972 -0.7169
vn 0.0000 -0.6970 -0.7171
vn -0.0009 -0.2583 -0.9661
vn 0.0000 -0.0039 -1.0000
vn 0.0000 0.2588 -0.9659
vn 0.0000 -0.5029 0.8643
vn 0.0000 -0.2592 0.9658
vn -0.0001 -0.2592 0.9658
vn -0.0000 -0.7018 0.7124
vn -0.0003 -0.8642 0.5032
vn 0.0003 -0.7017 0.7124
vn 0.0000 0.9659 -0.2588
vn 0.0000 1.0000 0.0000
vn 0.0000 0.9658 -0.2591
vn -1.0000 0.0000 0.0000
vn -0.0000 0.8643 -0.5029
vn 0.0000 0.7071 -0.7071
vn 0.0000 0.5029 -0.8643
vn -0.0000 0.2591 -0.9658
vn 0.0000 -0.0000 -1.0000
vn 0.0000 0.2588 0.9659
vn 0.0000 0.0000 1.0000
vn 0.0200 0.0022 0.9998
vn -0.0000 0.5029 0.8643
vn 0.0000 0.7071 0.7071
vn 0.0000 0.8677 0.4970
vn 0.0000 0.9658 0.2593
vn 0.0000 0.9659 0.2588
vn -0.8944 -0.0000 0.4473
vn 0.0000 0.4473 -0.8944
vn -0.0000 1.0000 0.0001
vn -0.2993 0.8797 0.3694
vn 0.0000 -1.0000 -0.0000
vn -0.0035 -0.0001 1.0000
vn -0.0557 0.0011 0.9984
vn 1.0000 0.0000 0.0001
vn 0.0019 -0.8641 0.5032
vn -0.0111 -0.9660 -0.2584
vn 1.0000 0.0000 0.0002
vn -0.0008 -0.2579 -0.9662
vn 1.0000 -0.0001 -0.0012
vn 1.0000 -0.0002 -0.0013
usemtl Pobot1Mtl.003
s 1
f 1/1/1 2/2/2 3/3/3
f 4/4/4 5/5/4 6/6/4
f 7/7/5 1/1/1 8/8/6
f 9/9/7 7/7/5 10/10/7
f 6/6/4 11/11/4 12/12/4
f 13/13/8 9/9/7 14/14/8
f 11/11/4 15/15/4 12/12/4
f 16/16/9 17/17/10 18/18/11
f 19/19/12 16/16/9 20/20/9
f 12/12/4 21/21/4 4/4/4
f 22/22/13 19/19/12 23/23/13
f 21/21/4 24/24/4 25/25/4
f 26/26/14 22/22/13 23/23/13
f 24/24/4 27/27/4 28/28/4
f 29/29/15 30/30/16 31/31/17
f 32/32/4 33/33/4 34/34/4
f 35/35/18 29/29/15 36/36/15
f 33/33/4 37/37/4 38/38/4
f 39/39/19 40/40/18 41/41/20
f 2/2/2 39/39/19 3/3/3
f 38/38/4 4/4/4 25/25/4
f 42/42/21 43/43/22 44/44/23
f 45/45/24 46/46/24 47/47/24
f 48/48/25 42/42/21 49/49/25
f 46/46/24 50/50/24 51/51/24
f 52/52/26 48/48/25 49/49/25
f 53/53/27 54/54/26 55/55/27
f 51/51/24 56/56/24 46/46/24
f 57/57/28 53/53/27 55/55/27
f 56/56/24 58/58/24 59/59/24
f 60/60/29 57/57/28 61/61/29
f 62/62/30 63/63/31 64/64/32
f 65/65/24 66/66/24 67/67/24
f 68/68/33 62/62/30 69/69/30
f 70/70/34 68/68/33 71/71/34
f 67/67/24 72/72/24 73/73/24
f 74/74/35 75/75/34 76/76/35
f 77/77/36 74/74/35 78/78/37
f 73/73/24 47/47/24 46/46/24
f 43/43/22 77/77/36 78/78/37
f 79/79/38 80/80/24 81/81/31
f 63/63/31 83/82/31 85/83/31
f 65/65/24 86/84/24 87/85/24
f 91/86/22 92/87/39 93/88/40
f 92/87/39 91/86/22 89/89/41
f 79/79/38 81/81/31 94/90/31
f 96/91/29 97/92/29 98/93/29
f 86/84/24 99/94/24 87/85/24
f 100/95/42 101/96/42 102/97/42
f 96/91/29 98/93/29 103/98/29
f 81/81/31 104/99/31 94/90/31
f 105/100/29 96/91/29 103/98/29
f 101/96/42 106/101/42 102/97/42
f 43/43/22 107/102/22 44/44/23
f 107/102/22 43/43/22 78/78/37
f 74/74/35 76/76/35 78/78/37
f 75/75/34 108/103/34 76/76/35
f 109/104/33 68/68/33 69/69/30
f 68/68/33 109/104/33 71/71/34
f 69/69/30 62/62/30 64/64/32
f 69/69/30 64/64/32 110/105/43
f 64/64/32 85/83/31 110/105/43
f 113/106/22 89/89/22 90/107/22
f 110/105/43 83/82/31 84/108/44
f 83/82/31 110/105/43 85/83/31
f 110/105/43 84/108/44 30/30/16
f 114/109/45 115/110/45 116/111/4
f 84/108/44 31/31/17 30/30/16
f 114/109/45 116/111/4 117/112/4
f 31/31/17 36/36/15 29/29/15
f 117/112/4 116/111/4 118/113/4
f 36/36/15 119/114/18 35/35/18
f 116/111/4 120/115/4 118/113/4
f 120/115/4 116/111/4 121/116/4
f 41/41/20 122/117/46 39/39/19
f 39/39/19 122/117/46 3/3/3
f 121/116/4 116/111/4 123/118/4
f 123/118/4 116/111/4 124/119/4
f 3/3/3 8/8/6 1/1/1
f 125/120/4 123/118/4 124/119/4
f 8/8/6 126/121/47 7/7/5
f 7/7/5 126/121/47 10/10/7
f 127/122/4 125/120/4 124/119/4
f 9/9/7 10/10/7 14/14/8
f 128/123/4 127/122/4 124/119/4
f 129/124/4 128/123/4 124/119/4
f 18/18/11 20/20/9 16/16/9
f 130/125/48 129/124/4 124/119/4
f 20/20/9 131/126/49 19/19/12
f 19/19/12 131/126/49 23/23/13
f 130/125/48 124/119/4 132/127/50
f 133/128/4 130/125/48 134/129/51
f 93/88/40 135/130/40 91/86/22
f 132/127/50 134/129/51 130/125/48
f 23/23/13 61/61/29 26/26/14
f 26/26/14 57/57/28 55/55/27
f 57/57/28 26/26/14 61/61/29
f 136/131/26 52/52/26 49/49/25
f 54/54/26 137/132/26 55/55/27
f 42/42/21 44/44/23 49/49/25
f 4/4/4 6/6/4 12/12/4
f 4/4/4 21/21/4 25/25/4
f 24/24/4 28/28/4 25/25/4
f 25/25/4 138/133/4 139/134/4
f 138/133/4 25/25/4 28/28/4
f 140/135/4 25/25/4 141/136/4
f 25/25/4 140/135/4 142/137/4
f 25/25/4 142/137/4 143/138/4
f 25/25/4 143/138/4 33/33/4
f 143/138/4 142/137/4 144/139/4
f 38/38/4 25/25/4 33/33/4
f 33/33/4 143/138/4 145/140/4
f 34/34/4 33/33/4 145/140/4
f 46/46/24 56/56/24 59/59/24
f 46/46/24 59/59/24 65/65/24
f 46/46/24 65/65/24 67/67/24
f 46/46/24 67/67/24 73/73/24
f 89/89/41 91/86/22 88/141/22
