# Blender v2.93.0 OBJ File: ''
# www.blender.org
mtllib Leg.mtl
o Leg
v -0.399950 -1.999610 0.499551
v -0.499950 -1.999609 0.399551
v -0.399950 -2.499609 0.399551
v -0.399950 -2.499609 0.399551
v 0.400047 -2.499609 0.399551
v 0.400047 -1.999610 0.499551
v -0.399950 -1.999610 0.499551
v -0.399950 -1.999610 0.499551
v -0.399950 2.000390 0.499551
v -0.499950 2.000390 0.399552
v -0.499950 -1.999609 0.399551
v -0.399950 2.000390 0.499551
v -0.399950 -1.999610 0.499551
v 0.400047 2.000390 0.499551
v 0.400047 -1.999610 0.499551
v -0.399950 -2.499599 -0.400449
v -0.399950 -2.499609 0.399551
v -0.499950 -1.999609 0.399551
v -0.499950 2.000390 0.399552
v -0.499950 2.000401 -0.400449
v -0.499950 -1.999599 -0.400449
v -0.499950 -1.999609 0.399551
v -0.399950 -2.499599 -0.400449
v -0.499950 -1.999599 -0.400449
v -0.399950 -1.999599 -0.500449
v 0.400047 -2.499609 -0.400449
v -0.399950 -2.499599 -0.400449
v -0.399950 -1.999599 -0.500449
v -0.399950 -2.499599 -0.400449
v -0.499950 -1.999609 0.399551
v -0.499950 -1.999599 -0.400449
v 0.400047 -2.499609 0.399551
v -0.399950 -2.499599 -0.400449
v 0.400047 -2.499609 -0.400449
v -0.399950 -2.499609 0.399551
v -0.399950 -1.999599 -0.500449
v 0.400047 -1.999609 -0.500449
v 0.400047 -2.499609 -0.400449
v -0.399950 2.000401 -0.500448
v -0.499950 -1.999599 -0.400449
v -0.499950 2.000401 -0.400449
v -0.399950 -1.999599 -0.500449
v 0.400047 2.000390 -0.500448
v -0.399950 -1.999599 -0.500449
v -0.399950 2.000401 -0.500448
v 0.400047 -1.999609 -0.500449
v 0.400047 -1.999609 -0.500449
v 0.500047 -1.999609 -0.400449
v 0.400047 -2.499609 -0.400449
v 0.400047 2.000390 -0.500448
v 0.400047 2.500390 -0.400449
v 0.500047 2.000390 -0.400449
v 0.400047 2.500390 0.399552
v 0.400047 2.000390 0.499551
v 0.500047 2.000390 0.399552
v 0.400047 -2.499609 0.399551
v 0.500047 -1.999609 0.399551
v 0.400047 -1.999610 0.499551
v 0.500047 2.000390 -0.400449
v 0.400047 -1.999609 -0.500449
v 0.400047 2.000390 -0.500448
v 0.500047 -1.999609 -0.400449
v 0.500047 -1.999609 -0.400449
v 0.500047 -1.999609 0.399551
v 0.400047 -2.499609 0.399551
v 0.400047 -2.499609 -0.400449
v 0.400047 2.500390 -0.400449
v 0.400047 2.500390 0.399552
v 0.500047 2.000390 0.399552
v 0.500047 2.000390 -0.400449
v 0.500047 -1.999609 0.399551
v 0.500047 2.000390 0.399552
v 0.400047 2.000390 0.499551
v 0.400047 -1.999610 0.499551
v 0.500047 2.000390 0.399552
v 0.500047 -1.999609 -0.400449
v 0.500047 2.000390 -0.400449
v 0.500047 -1.999609 0.399551
v -0.399950 2.500390 -0.400449
v -0.399950 2.000401 -0.500448
v -0.499950 2.000401 -0.400449
v -0.399950 2.000390 0.499551
v -0.399950 2.500390 0.399552
v -0.499950 2.000390 0.399552
v -0.399950 2.500390 -0.400449
v 0.400047 2.000390 -0.500448
v -0.399950 2.000401 -0.500448
v 0.400047 2.500390 -0.400449
v -0.399950 2.000390 0.499551
v 0.400047 2.500390 0.399552
v -0.399950 2.500390 0.399552
v 0.400047 2.000390 0.499551
v -0.499950 2.000401 -0.400449
v -0.499950 2.000390 0.399552
v -0.399950 2.500390 0.399552
v -0.399950 2.500390 -0.400449
v -0.399950 2.500390 0.399552
v 0.400047 2.500390 -0.400449
v -0.399950 2.500390 -0.400449
v 0.400047 2.500390 0.399552
v -0.399950 1.600390 0.499551
v -0.499950 1.600390 0.399551
v -0.399950 1.500390 0.399551
v -0.399950 1.500390 0.399551
v 0.400047 1.500390 0.399551
v 0.400047 1.600390 0.499551
v -0.399950 1.600390 0.499551
v -0.399950 1.600390 0.499551
v -0.399950 2.400391 0.499551
v -0.499950 2.400391 0.399552
v -0.499950 1.600390 0.399551
v -0.399950 2.400391 0.499551
v -0.399950 1.600390 0.499551
v 0.400047 2.400391 0.499551
v 0.400047 1.600390 0.499551
v -0.399950 1.500390 -0.400449
v -0.399950 1.500390 0.399551
v -0.499950 1.600390 0.399551
v -0.499950 2.400391 0.399552
v -0.499950 2.400391 -0.400449
v -0.499950 1.600390 -0.400449
v -0.499950 1.600390 0.399551
v -0.399950 1.500390 -0.400449
v -0.499950 1.600390 -0.400449
v -0.399950 1.600390 -0.500448
v 0.400047 1.500390 -0.400449
v -0.399950 1.500390 -0.400449
v -0.399950 1.600390 -0.500448
v -0.399950 1.500390 -0.400449
v -0.499950 1.600390 0.399551
v -0.499950 1.600390 -0.400449
v 0.400047 1.500390 0.399551
v -0.399950 1.500390 -0.400449
v 0.400047 1.500390 -0.400449
v -0.399950 1.500390 0.399551
v -0.399950 1.600390 -0.500448
v 0.400047 1.600390 -0.500448
v 0.400047 1.500390 -0.400449
v -0.399950 2.400391 -0.500448
v -0.499950 1.600390 -0.400449
v -0.499950 2.400391 -0.400449
v -0.399950 1.600390 -0.500448
v 0.400047 2.400391 -0.500448
v -0.399950 1.600390 -0.500448
v -0.399950 2.400391 -0.500448
v 0.400047 1.600390 -0.500448
v 0.400047 1.600390 -0.500448
v 0.500047 1.600390 -0.400449
v 0.400047 1.500390 -0.400449
v 0.400047 2.400391 -0.500448
v 0.400047 2.500390 -0.400449
v 0.500047 2.400391 -0.400449
v 0.400047 2.500390 0.399552
v 0.400047 2.400391 0.499551
v 0.500047 2.400391 0.399552
v 0.400047 1.500390 0.399551
v 0.500047 1.600390 0.399551
v 0.400047 1.600390 0.499551
v 0.500047 2.400391 -0.400449
v 0.400047 1.600390 -0.500448
v 0.400047 2.400391 -0.500448
v 0.500047 1.600390 -0.400449
v 0.500047 1.600390 -0.400449
v 0.500047 1.600390 0.399551
v 0.400047 1.500390 0.399551
v 0.400047 1.500390 -0.400449
v 0.400047 2.500390 -0.400449
v 0.400047 2.500390 0.399552
v 0.500047 2.400391 0.399552
v 0.500047 2.400391 -0.400449
v 0.500047 1.600390 0.399551
v 0.500047 2.400391 0.399552
v 0.400047 2.400391 0.499551
v 0.400047 1.600390 0.499551
v 0.500047 2.400391 0.399552
v 0.500047 1.600390 -0.400449
v 0.500047 2.400391 -0.400449
v 0.500047 1.600390 0.399551
v -0.399950 2.500390 -0.400449
v -0.399950 2.400391 -0.500448
v -0.499950 2.400391 -0.400449
v -0.399950 2.400391 0.499551
v -0.399950 2.500390 0.399552
v -0.499950 2.400391 0.399552
v -0.399950 2.500390 -0.400449
v 0.400047 2.400391 -0.500448
v -0.399950 2.400391 -0.500448
v 0.400047 2.500390 -0.400449
v -0.399950 2.400391 0.499551
v 0.400047 2.500390 0.399552
v -0.399950 2.500390 0.399552
v 0.400047 2.400391 0.499551
v -0.499950 2.400391 -0.400449
v -0.499950 2.400391 0.399552
v -0.399950 2.500390 0.399552
v -0.399950 2.500390 -0.400449
v -0.399950 2.500390 0.399552
v 0.400047 2.500390 -0.400449
v -0.399950 2.500390 -0.400449
v 0.400047 2.500390 0.399552
vt -3.935950 2.394690
vt -3.935950 2.524690
vt -4.585950 2.394690
vt -4.585950 2.394690
vt -4.585950 1.354690
vt -3.935950 1.354690
vt -3.935950 2.394690
vt -3.935950 2.394690
vt 1.264050 2.394690
vt 1.264050 2.524690
vt -3.935950 2.524690
vt 1.264050 2.394690
vt -3.935950 2.394690
vt 1.264050 1.354690
vt -3.935950 1.354690
vt -0.815950 5.124690
vt -1.855950 5.124690
vt -1.855950 4.474690
vt -1.855950 -0.725308
vt -0.815950 -0.725311
vt -0.815950 4.474690
vt -1.855950 4.474690
vt -1.855950 2.394690
vt -1.855950 2.524690
vt -1.985950 2.394690
vt -1.855950 1.354690
vt -1.855950 2.394690
vt -1.985950 2.394690
vt -1.855950 2.394690
vt -0.815950 2.524690
vt -1.855950 2.524690
vt -0.815950 1.354690
vt -1.855950 2.394690
vt -1.855950 1.354690
vt -0.815950 2.394690
vt 1.264050 2.394690
vt 1.264050 1.354690
vt 1.914050 1.354690
vt -3.935950 2.394690
vt 1.264050 2.524690
vt -3.935950 2.524690
vt 1.264050 2.394690
vt -3.935950 1.354690
vt 1.264050 2.394690
vt -3.935950 2.394690
vt 1.264050 1.354690
vt -1.985950 4.474690
vt -1.855950 4.474690
vt -1.855950 5.124690
vt -1.985950 -0.725308
vt -1.855950 -1.375310
vt -1.855950 -0.725308
vt -0.815950 -1.375310
vt -0.685950 -0.725308
vt -0.815950 -0.725308
vt -0.815950 5.124690
vt -0.815950 4.474690
vt -0.685950 4.474690
vt -1.855950 -0.725308
vt -1.985950 4.474690
vt -1.985950 -0.725308
vt -1.855950 4.474690
vt -1.855950 4.474690
vt -0.815950 4.474690
vt -0.815950 5.124690
vt -1.855950 5.124690
vt -1.855950 -1.375310
vt -0.815950 -1.375310
vt -0.815950 -0.725308
vt -1.855950 -0.725308
vt -0.815950 4.474690
vt -0.815950 -0.725308
vt -0.685950 -0.725308
vt -0.685950 4.474690
vt -0.815950 -0.725308
vt -1.855950 4.474690
vt -1.855950 -0.725308
vt -0.815950 4.474690
vt -0.815950 2.394690
vt -0.685950 2.394690
vt -0.815950 2.524690
vt -1.985950 2.394690
vt -1.855950 2.394690
vt -1.855950 2.524690
vt -0.815950 2.394690
vt -0.685950 1.354690
vt -0.685950 2.394690
vt -0.815950 1.354690
vt -1.985950 2.394690
vt -1.855950 1.354690
vt -1.855950 2.394690
vt -1.985950 1.354690
vt -0.815950 2.524690
vt -1.855950 2.524690
vt -1.855950 2.394690
vt -0.815950 2.394690
vt -1.855950 2.394690
vt -0.815950 1.354690
vt -0.815950 2.394690
vt -1.855950 1.354690
vt 0.544748 0.073607
vt 0.544748 0.203607
vt 0.414748 0.073607
vt 0.414748 0.073607
vt 0.414748 -0.966393
vt 0.544748 -0.966393
vt 0.544748 0.073607
vt 0.544748 0.073607
vt 1.584750 0.073607
vt 1.584750 0.203607
vt 0.544748 0.203607
vt 1.584750 0.073607
vt 0.544748 0.073607
vt 1.584750 -0.966393
vt 0.544748 -0.966393
vt 1.584750 0.203606
vt 0.544748 0.203607
vt 0.544748 0.073607
vt 0.544748 -0.966393
vt 1.584750 -0.966393
vt 1.584750 0.073606
vt 0.544748 0.073607
vt 0.544748 0.073607
vt 0.544748 0.203607
vt 0.414748 0.073607
vt 0.544748 -0.966393
vt 0.544748 0.073607
vt 0.414748 0.073607
vt 0.544748 0.073607
vt 1.584750 0.203607
vt 0.544748 0.203607
vt 1.584750 -0.966393
vt 0.544748 0.073607
vt 0.544748 -0.966393
vt 1.584750 0.073607
vt 1.584750 0.073607
vt 1.584750 -0.966393
vt 1.714750 -0.966393
vt 0.544747 0.073607
vt 1.584750 0.203607
vt 0.544747 0.203607
vt 1.584750 0.073607
vt 0.544748 -0.966393
vt 1.584750 0.073607
vt 0.544747 0.073607
vt 1.584750 -0.966393
vt 0.414748 0.073607
vt 0.544748 0.073607
vt 0.544748 0.203607
vt 0.414748 -0.966393
vt 0.544748 -1.096390
vt 0.544748 -0.966393
vt 1.584750 -1.096390
vt 1.714750 -0.966393
vt 1.584750 -0.966393
vt 1.584750 0.203607
vt 1.584750 0.073607
vt 1.714750 0.073607
vt 0.544748 -0.966393
vt 0.414748 0.073607
vt 0.414748 -0.966393
vt 0.544748 0.073607
vt 0.544748 0.073607
vt 1.584750 0.073607
vt 1.584750 0.203607
vt 0.544748 0.203607
vt 0.544748 -1.096390
vt 1.584750 -1.096390
vt 1.584750 -0.966393
vt 0.544748 -0.966393
vt 1.584750 0.073607
vt 1.584750 -0.966393
vt 1.714750 -0.966393
vt 1.714750 0.073607
vt 1.584750 -0.966393
vt 0.544748 0.073607
vt 0.544748 -0.966393
vt 1.584750 0.073607
vt 1.584750 0.073607
vt 1.714750 0.073607
vt 1.584750 0.203607
vt 0.414748 0.073607
vt 0.544748 0.073607
vt 0.544748 0.203607
vt 1.584750 0.073607
vt 1.714750 -0.966393
vt 1.714750 0.073607
vt 1.584750 -0.966393
vt 0.414748 0.073607
vt 0.544748 -0.966393
vt 0.544748 0.073607
vt 0.414748 -0.966393
vt 1.584750 0.203607
vt 0.544748 0.203607
vt 0.544748 0.073607
vt 1.584750 0.073607
vt 0.544748 0.073607
vt 1.584750 -0.966393
vt 1.584750 0.073607
vt 0.544748 -0.966393
vn -0.7000 -0.1416 0.7000
vn 0.0000 -0.1961 0.9806
vn -0.7071 -0.0000 0.7071
vn 0.0000 -0.0000 1.0000
vn -0.9806 -0.1961 -0.0000
vn -1.0000 0.0000 0.0000
vn -0.7000 -0.1416 -0.7000
vn -0.0000 -0.1961 -0.9806
vn -0.0000 -1.0000 -0.0000
vn -0.7071 0.0000 -0.7071
vn 0.0000 0.0000 -1.0000
vn 0.7000 -0.1415 -0.7000
vn 0.7000 0.1415 -0.7000
vn 0.7000 0.1415 0.7000
vn 0.7000 -0.1415 0.7000
vn 0.7071 0.0000 -0.7071
vn 0.9806 -0.1961 0.0000
vn 0.9806 0.1961 0.0000
vn 0.7071 -0.0000 0.7071
vn 1.0000 -0.0000 0.0000
vn -0.7000 0.1415 -0.7000
vn -0.7000 0.1415 0.7000
vn 0.0000 0.1961 -0.9806
vn 0.0000 0.1961 0.9806
vn -0.9806 0.1961 0.0000
vn 0.0000 1.0000 0.0000
vn -0.5774 -0.5773 0.5774
vn 0.0000 -0.7071 0.7071
vn -0.7071 -0.7071 0.0000
vn -0.5774 -0.5773 -0.5774
vn 0.0000 -0.7071 -0.7071
vn 0.5774 -0.5773 -0.5774
vn 0.5773 0.5774 -0.5773
vn 0.5773 0.5774 0.5773
vn 0.5774 -0.5773 0.5774
vn 0.7071 -0.7071 0.0000
vn 0.7071 0.7071 0.0000
vn -0.5773 0.5774 -0.5773
vn -0.5773 0.5774 0.5773
vn 0.0000 0.7071 -0.7071
vn 0.0000 0.7071 0.7071
vn -0.7071 0.7071 0.0000
usemtl Pobot1Mtl.004
s 1
f 1/1/1 2/2/1 3/3/1
f 4/4/2 5/5/2 6/6/2
f 6/6/2 7/7/2 4/4/2
f 8/8/3 9/9/3 10/10/3
f 10/10/3 11/11/3 8/8/3
f 12/12/4 13/13/4 14/14/4
f 14/14/4 13/13/4 15/15/4
f 16/16/5 17/17/5 18/18/5
f 19/19/6 20/20/6 21/21/6
f 19/19/6 21/21/6 22/22/6
f 23/23/7 24/24/7 25/25/7
f 26/26/8 27/27/8 28/28/8
f 29/29/5 30/30/5 31/31/5
f 32/32/9 33/33/9 34/34/9
f 33/33/9 32/32/9 35/35/9
f 36/36/8 37/37/8 38/38/8
f 39/39/10 40/40/10 41/41/10
f 40/40/10 39/39/10 42/42/10
f 43/43/11 44/44/11 45/45/11
f 44/44/11 43/43/11 46/46/11
f 47/47/12 48/48/12 49/49/12
f 50/50/13 51/51/13 52/52/13
f 53/53/14 54/54/14 55/55/14
f 56/56/15 57/57/15 58/58/15
f 59/59/16 60/60/16 61/61/16
f 60/60/16 59/59/16 62/62/16
f 63/63/17 64/64/17 65/65/17
f 63/63/17 65/65/17 66/66/17
f 67/67/18 68/68/18 69/69/18
f 67/67/18 69/69/18 70/70/18
f 71/71/19 72/72/19 73/73/19
f 73/73/19 74/74/19 71/71/19
f 75/75/20 76/76/20 77/77/20
f 76/76/20 75/75/20 78/78/20
f 79/79/21 80/80/21 81/81/21
f 82/82/22 83/83/22 84/84/22
f 85/85/23 86/86/23 87/87/23
f 86/86/23 85/85/23 88/88/23
f 89/89/24 90/90/24 91/91/24
f 90/90/24 89/89/24 92/92/24
f 93/93/25 94/94/25 95/95/25
f 93/93/25 95/95/25 96/96/25
f 97/97/26 98/98/26 99/99/26
f 98/98/26 97/97/26 100/100/26
f 101/101/27 102/102/27 103/103/27
f 104/104/28 105/105/28 106/106/28
f 106/106/28 107/107/28 104/104/28
f 108/108/3 109/109/3 110/110/3
f 110/110/3 111/111/3 108/108/3
f 112/112/4 113/113/4 114/114/4
f 114/114/4 113/113/4 115/115/4
f 116/116/29 117/117/29 118/118/29
f 119/119/6 120/120/6 121/121/6
f 119/119/6 121/121/6 122/122/6
f 123/123/30 124/124/30 125/125/30
f 126/126/31 127/127/31 128/128/31
f 129/129/29 130/130/29 131/131/29
f 132/132/9 133/133/9 134/134/9
f 133/133/9 132/132/9 135/135/9
f 136/136/31 137/137/31 138/138/31
f 139/139/10 140/140/10 141/141/10
f 140/140/10 139/139/10 142/142/10
f 143/143/11 144/144/11 145/145/11
f 144/144/11 143/143/11 146/146/11
f 147/147/32 148/148/32 149/149/32
f 150/150/33 151/151/33 152/152/33
f 153/153/34 154/154/34 155/155/34
f 156/156/35 157/157/35 158/158/35
f 159/159/16 160/160/16 161/161/16
f 160/160/16 159/159/16 162/162/16
f 163/163/36 164/164/36 165/165/36
f 163/163/36 165/165/36 166/166/36
f 167/167/37 168/168/37 169/169/37
f 167/167/37 169/169/37 170/170/37
f 171/171/19 172/172/19 173/173/19
f 173/173/19 174/174/19 171/171/19
f 175/175/20 176/176/20 177/177/20
f 176/176/20 175/175/20 178/178/20
f 179/179/38 180/180/38 181/181/38
f 182/182/39 183/183/39 184/184/39
f 185/185/40 186/186/40 187/187/40
f 186/186/40 185/185/40 188/188/40
f 189/189/41 190/190/41 191/191/41
f 190/190/41 189/189/41 192/192/41
f 193/193/42 194/194/42 195/195/42
f 193/193/42 195/195/42 196/196/42
f 197/197/26 198/198/26 199/199/26
f 198/198/26 197/197/26 200/200/26
