# Blender v2.93.0 OBJ File: ''
# www.blender.org
mtllib Torso.mtl
o Torso
v 1.099651 2.440400 1.359663
v 0.879651 2.700400 1.359663
v 0.879651 2.440400 1.699663
v 0.879651 2.440400 1.699663
v 0.879651 0.360400 1.699663
v 1.099651 0.360400 1.359663
v 1.099651 2.440400 1.359663
v 1.099651 2.440400 1.359663
v 1.099651 2.440400 -1.360337
v 0.879651 2.700400 -1.360337
v 0.879651 2.700400 1.359663
v 1.099651 2.440400 -1.360337
v 1.099651 2.440400 1.359663
v 1.099651 0.360400 -1.360338
v 1.099651 0.360400 1.359663
v -0.880350 2.440400 1.699661
v 0.879651 2.440400 1.699663
v 0.879651 2.700400 1.359663
v 0.879651 2.700400 -1.360337
v -0.880350 2.700400 -1.360337
v -0.880350 2.700400 1.359662
v 0.879651 2.700400 1.359663
v -0.880350 2.440400 1.699661
v -0.880350 2.700400 1.359662
v -1.100350 2.440400 1.359661
v -0.880350 0.360400 1.699663
v -0.880350 2.440400 1.699661
v -1.100350 2.440400 1.359661
v -0.880350 2.440400 1.699661
v 0.879651 2.700400 1.359663
v -0.880350 2.700400 1.359662
v 0.879651 0.360400 1.699663
v -0.880350 2.440400 1.699661
v -0.880350 0.360400 1.699663
v 0.879651 2.440400 1.699663
v -1.100350 2.440400 1.359661
v -1.100350 0.360400 1.359663
v -0.880350 0.360400 1.699663
v -1.100350 2.440400 -1.360337
v -0.880350 2.700400 1.359662
v -0.880350 2.700400 -1.360337
v -1.100350 2.440400 1.359661
v -1.100350 0.360400 -1.360338
v -1.100350 2.440400 1.359661
v -1.100350 2.440400 -1.360337
v -1.100350 0.360400 1.359663
v -1.100350 0.360400 1.359663
v -0.880350 0.100400 1.359663
v -0.880350 0.360400 1.699663
v -1.100350 0.360400 -1.360338
v -0.880350 0.360400 -1.700338
v -0.880350 0.100400 -1.360338
v 0.879651 0.360400 -1.700338
v 1.099651 0.360400 -1.360338
v 0.879651 0.100400 -1.360338
v 0.879651 0.360400 1.699663
v 0.879651 0.100400 1.359663
v 1.099651 0.360400 1.359663
v -0.880350 0.100400 -1.360338
v -1.100350 0.360400 1.359663
v -1.100350 0.360400 -1.360338
v -0.880350 0.100400 1.359663
v -0.880350 0.100400 1.359663
v 0.879651 0.100400 1.359663
v 0.879651 0.360400 1.699663
v -0.880350 0.360400 1.699663
v -0.880350 0.360400 -1.700338
v 0.879651 0.360400 -1.700338
v 0.879651 0.100400 -1.360338
v -0.880350 0.100400 -1.360338
v 0.879651 0.100400 1.359663
v 0.879651 0.100400 -1.360338
v 1.099651 0.360400 -1.360338
v 1.099651 0.360400 1.359663
v 0.879651 0.100400 -1.360338
v -0.880350 0.100400 1.359663
v -0.880350 0.100400 -1.360338
v 0.879651 0.100400 1.359663
v -0.880350 2.440400 -1.700337
v -1.100350 2.440400 -1.360337
v -0.880350 2.700400 -1.360337
v 1.099651 2.440400 -1.360337
v 0.879651 2.440400 -1.700337
v 0.879651 2.700400 -1.360337
v -0.880350 2.440400 -1.700337
v -1.100350 0.360400 -1.360338
v -1.100350 2.440400 -1.360337
v -0.880350 0.360400 -1.700338
v 1.099651 2.440400 -1.360337
v 0.879651 0.360400 -1.700338
v 0.879651 2.440400 -1.700337
v 1.099651 0.360400 -1.360338
v -0.880350 2.700400 -1.360337
v 0.879651 2.700400 -1.360337
v 0.879651 2.440400 -1.700337
v -0.880350 2.440400 -1.700337
v 0.879651 2.440400 -1.700337
v -0.880350 0.360400 -1.700338
v -0.880350 2.440400 -1.700337
v 0.879651 0.360400 -1.700338
v 1.099651 -0.359600 1.359663
v 0.879651 -0.099600 1.359663
v 0.879651 -0.359600 1.699663
v 0.879651 -0.359600 1.699663
v 0.879651 -2.439600 1.699663
v 1.099651 -2.439600 1.359663
v 1.099651 -0.359600 1.359663
v 1.099651 -0.359600 1.359663
v 1.099651 -0.359600 -1.360338
v 0.879651 -0.099600 -1.360338
v 0.879651 -0.099600 1.359663
v 1.099651 -0.359600 -1.360338
v 1.099651 -0.359600 1.359663
v 1.099651 -2.439600 -1.360338
v 1.099651 -2.439600 1.359663
v -0.880350 -0.359600 1.699661
v 0.879651 -0.359600 1.699663
v 0.879651 -0.099600 1.359663
v 0.879651 -0.099600 -1.360338
v -0.880350 -0.099600 -1.360338
v -0.880350 -0.099600 1.359661
v 0.879651 -0.099600 1.359663
v -0.880350 -0.359600 1.699661
v -0.880350 -0.099600 1.359661
v -1.100350 -0.359600 1.359661
v -0.880350 -2.439600 1.699663
v -0.880350 -0.359600 1.699661
v -1.100350 -0.359600 1.359661
v -0.880350 -0.359600 1.699661
v 0.879651 -0.099600 1.359663
v -0.880350 -0.099600 1.359661
v 0.879651 -2.439600 1.699663
v -0.880350 -0.359600 1.699661
v -0.880350 -2.439600 1.699663
v 0.879651 -0.359600 1.699663
v -1.100350 -0.359600 1.359661
v -1.100350 -2.439600 1.359663
v -0.880350 -2.439600 1.699663
v -1.100350 -0.359600 -1.360338
v -0.880350 -0.099600 1.359661
v -0.880350 -0.099600 -1.360338
v -1.100350 -0.359600 1.359661
v -1.100350 -2.439600 -1.360338
v -1.100350 -0.359600 1.359661
v -1.100350 -0.359600 -1.360338
v -1.100350 -2.439600 1.359663
v -1.100350 -2.439600 1.359663
v -0.880350 -2.699600 1.359663
v -0.880350 -2.439600 1.699663
v -1.100350 -2.439600 -1.360338
v -0.880350 -2.439600 -1.700338
v -0.880350 -2.699600 -1.360338
v 0.879651 -2.439600 -1.700338
v 1.099651 -2.439600 -1.360338
v 0.879651 -2.699600 -1.360338
v 0.879651 -2.439600 1.699663
v 0.879651 -2.699600 1.359663
v 1.099651 -2.439600 1.359663
v -0.880350 -2.699600 -1.360338
v -1.100350 -2.439600 1.359663
v -1.100350 -2.439600 -1.360338
v -0.880350 -2.699600 1.359663
v -0.880350 -2.699600 1.359663
v 0.879651 -2.699600 1.359663
v 0.879651 -2.439600 1.699663
v -0.880350 -2.439600 1.699663
v -0.880350 -2.439600 -1.700338
v 0.879651 -2.439600 -1.700338
v 0.879651 -2.699600 -1.360338
v -0.880350 -2.699600 -1.360338
v 0.879651 -2.699600 1.359663
v 0.879651 -2.699600 -1.360338
v 1.099651 -2.439600 -1.360338
v 1.099651 -2.439600 1.359663
v 0.879651 -2.699600 -1.360338
v -0.880350 -2.699600 1.359663
v -0.880350 -2.699600 -1.360338
v 0.879651 -2.699600 1.359663
v -0.880350 -0.359600 -1.700338
v -1.100350 -0.359600 -1.360338
v -0.880350 -0.099600 -1.360338
v 1.099651 -0.359600 -1.360338
v 0.879651 -0.359600 -1.700338
v 0.879651 -0.099600 -1.360338
v -0.880350 -0.359600 -1.700338
v -1.100350 -2.439600 -1.360338
v -1.100350 -0.359600 -1.360338
v -0.880350 -2.439600 -1.700338
v 1.099651 -0.359600 -1.360338
v 0.879651 -2.439600 -1.700338
v 0.879651 -0.359600 -1.700338
v 1.099651 -2.439600 -1.360338
v -0.880350 -0.099600 -1.360338
v 0.879651 -0.099600 -1.360338
v 0.879651 -0.359600 -1.700338
v -0.880350 -0.359600 -1.700338
v 0.879651 -0.359600 -1.700338
v -0.880350 -2.439600 -1.700338
v -0.880350 -0.359600 -1.700338
v 0.879651 -2.439600 -1.700338
v 1.099651 2.160400 1.359663
v 0.879651 2.700400 1.359663
v 0.879651 2.160400 1.699663
v 0.879651 2.160400 1.699663
v 0.879651 -2.159600 1.699663
v 1.099651 -2.159600 1.359663
v 1.099651 2.160400 1.359663
v 1.099651 2.160400 1.359663
v 1.099651 2.160400 -1.360338
v 0.879651 2.700400 -1.360337
v 0.879651 2.700400 1.359663
v 1.099651 2.160400 -1.360338
v 1.099651 2.160400 1.359663
v 1.099651 -2.159600 -1.360338
v 1.099651 -2.159600 1.359663
v -0.880350 2.160400 1.699661
v 0.879651 2.160400 1.699663
v 0.879651 2.700400 1.359663
v 0.879651 2.700400 -1.360337
v -0.880350 2.700400 -1.360337
v -0.880350 2.700400 1.359662
v 0.879651 2.700400 1.359663
v -0.880350 2.160400 1.699661
v -0.880350 2.700400 1.359662
v -1.100350 2.160400 1.359661
v -0.880350 -2.159600 1.699663
v -0.880350 2.160400 1.699661
v -1.100350 2.160400 1.359661
v -0.880350 2.160400 1.699661
v 0.879651 2.700400 1.359663
v -0.880350 2.700400 1.359662
v 0.879651 -2.159600 1.699663
v -0.880350 2.160400 1.699661
v -0.880350 -2.159600 1.699663
v 0.879651 2.160400 1.699663
v -1.100350 2.160400 1.359661
v -1.100350 -2.159600 1.359663
v -0.880350 -2.159600 1.699663
v -1.100350 2.160400 -1.360338
v -0.880350 2.700400 1.359662
v -0.880350 2.700400 -1.360337
v -1.100350 2.160400 1.359661
v -1.100350 -2.159600 -1.360338
v -1.100350 2.160400 1.359661
v -1.100350 2.160400 -1.360338
v -1.100350 -2.159600 1.359663
v -1.100350 -2.159600 1.359663
v -0.880350 -2.699600 1.359663
v -0.880350 -2.159600 1.699663
v -1.100350 -2.159600 -1.360338
v -0.880350 -2.159600 -1.700338
v -0.880350 -2.699600 -1.360338
v 0.879651 -2.159600 -1.700338
v 1.099651 -2.159600 -1.360338
v 0.879651 -2.699600 -1.360338
v 0.879651 -2.159600 1.699663
v 0.879651 -2.699600 1.359663
v 1.099651 -2.159600 1.359663
v -0.880350 -2.699600 -1.360338
v -1.100350 -2.159600 1.359663
v -1.100350 -2.159600 -1.360338
v -0.880350 -2.699600 1.359663
v -0.880350 -2.699600 1.359663
v 0.879651 -2.699600 1.359663
v 0.879651 -2.159600 1.699663
v -0.880350 -2.159600 1.699663
v -0.880350 -2.159600 -1.700338
v 0.879651 -2.159600 -1.700338
v 0.879651 -2.699600 -1.360338
v -0.880350 -2.699600 -1.360338
v 0.879651 -2.699600 1.359663
v 0.879651 -2.699600 -1.360338
v 1.099651 -2.159600 -1.360338
v 1.099651 -2.159600 1.359663
v 0.879651 -2.699600 -1.360338
v -0.880350 -2.699600 1.359663
v -0.880350 -2.699600 -1.360338
v 0.879651 -2.699600 1.359663
v -0.880350 2.160400 -1.700338
v -1.100350 2.160400 -1.360338
v -0.880350 2.700400 -1.360337
v 1.099651 2.160400 -1.360338
v 0.879651 2.160400 -1.700338
v 0.879651 2.700400 -1.360337
v -0.880350 2.160400 -1.700338
v -1.100350 -2.159600 -1.360338
v -1.100350 2.160400 -1.360338
v -0.880350 -2.159600 -1.700338
v 1.099651 2.160400 -1.360338
v 0.879651 -2.159600 -1.700338
v 0.879651 2.160400 -1.700338
v 1.099651 -2.159600 -1.360338
v -0.880350 2.700400 -1.360337
v 0.879651 2.700400 -1.360337
v 0.879651 2.160400 -1.700338
v -0.880350 2.160400 -1.700338
v 0.879651 2.160400 -1.700338
v -0.880350 -2.159600 -1.700338
v -0.880350 2.160400 -1.700338
v 0.879651 -2.159600 -1.700338
vt 1.140670 3.815360
vt 1.140670 4.153360
vt 0.698671 3.815360
vt 0.698671 3.815360
vt 0.698671 1.111360
vt 1.140670 1.111360
vt 1.140670 3.815360
vt 1.140670 3.815360
vt 4.676670 3.815360
vt 4.676670 4.153360
vt 1.140670 4.153360
vt 4.676670 3.815360
vt 1.140670 3.815360
vt 4.676670 1.111360
vt 1.140670 1.111360
vt 4.052670 4.673350
vt 1.764670 4.673360
vt 1.764670 4.231360
vt 1.764670 0.695356
vt 4.052670 0.695354
vt 4.052670 4.231350
vt 1.764670 4.231360
vt 1.764670 3.815360
vt 1.764670 4.153360
vt 1.478670 3.815360
vt 1.764670 1.111360
vt 1.764670 3.815360
vt 1.478670 3.815360
vt 1.764670 3.815360
vt 4.052670 4.153360
vt 1.764670 4.153360
vt 4.052670 1.111360
vt 1.764670 3.815360
vt 1.764670 1.111360
vt 4.052670 3.815360
vt 4.676670 3.815360
vt 4.676670 1.111360
vt 5.118670 1.111360
vt 1.140670 3.815360
vt 4.676670 4.153360
vt 1.140670 4.153360
vt 4.676670 3.815360
vt 1.140670 1.111360
vt 4.676670 3.815360
vt 1.140670 3.815360
vt 4.676670 1.111360
vt 1.478670 4.231360
vt 1.764670 4.231360
vt 1.764670 4.673360
vt 1.478670 0.695356
vt 1.764670 0.253356
vt 1.764670 0.695356
vt 4.052670 0.253356
vt 4.338670 0.695356
vt 4.052670 0.695356
vt 4.052670 4.673360
vt 4.052670 4.231360
vt 4.338670 4.231360
vt 1.764670 0.695356
vt 1.478670 4.231360
vt 1.478670 0.695356
vt 1.764670 4.231360
vt 1.764670 4.231360
vt 4.052670 4.231360
vt 4.052670 4.673360
vt 1.764670 4.673360
vt 1.764670 0.253356
vt 4.052670 0.253356
vt 4.052670 0.695356
vt 1.764670 0.695356
vt 4.052670 4.231360
vt 4.052670 0.695356
vt 4.338670 0.695356
vt 4.338670 4.231360
vt 4.052670 0.695356
vt 1.764670 4.231360
vt 1.764670 0.695356
vt 4.052670 4.231360
vt 4.052670 3.815360
vt 4.338670 3.815360
vt 4.052670 4.153360
vt 1.478670 3.815360
vt 1.764670 3.815360
vt 1.764670 4.153360
vt 4.052670 3.815360
vt 4.338670 1.111360
vt 4.338670 3.815360
vt 4.052670 1.111360
vt 1.478670 3.815360
vt 1.764670 1.111360
vt 1.764670 3.815360
vt 1.478670 1.111360
vt 4.052670 4.153360
vt 1.764670 4.153360
vt 1.764670 3.815360
vt 4.052670 3.815360
vt 1.764670 3.815360
vt 4.052670 1.111360
vt 4.052670 3.815360
vt 1.764670 1.111360
vt -0.129476 -1.724060
vt -0.129476 -1.386060
vt -0.571476 -1.724060
vt -0.571476 -1.724060
vt -0.571476 -4.428060
vt -0.129476 -4.428060
vt -0.129476 -1.724060
vt -0.129476 -1.724060
vt 3.406520 -1.724060
vt 3.406520 -1.386060
vt -0.129476 -1.386060
vt 3.406520 -1.724060
vt -0.129476 -1.724060
vt 3.406520 -4.428060
vt -0.129476 -4.428060
vt 2.782520 -0.866058
vt 0.494524 -0.866056
vt 0.494524 -1.308060
vt 0.494524 -4.844060
vt 2.782520 -4.844060
vt 2.782520 -1.308060
vt 0.494524 -1.308060
vt 0.494524 -1.724060
vt 0.494524 -1.386060
vt 0.208524 -1.724060
vt 0.494524 -4.428060
vt 0.494524 -1.724060
vt 0.208524 -1.724060
vt 0.494524 -1.724060
vt 2.782520 -1.386060
vt 0.494524 -1.386060
vt 2.782520 -4.428060
vt 0.494524 -1.724060
vt 0.494524 -4.428060
vt 2.782520 -1.724060
vt 3.406520 -1.724060
vt 3.406520 -4.428060
vt 3.848520 -4.428060
vt -0.129478 -1.724060
vt 3.406520 -1.386060
vt -0.129478 -1.386060
vt 3.406520 -1.724060
vt -0.129476 -4.428060
vt 3.406520 -1.724060
vt -0.129478 -1.724060
vt 3.406520 -4.428060
vt 0.208524 -1.308060
vt 0.494524 -1.308060
vt 0.494524 -0.866056
vt 0.208524 -4.844060
vt 0.494524 -5.286060
vt 0.494524 -4.844060
vt 2.782520 -5.286060
vt 3.068520 -4.844060
vt 2.782520 -4.844060
vt 2.782520 -0.866056
vt 2.782520 -1.308060
vt 3.068520 -1.308060
vt 0.494524 -4.844060
vt 0.208524 -1.308060
vt 0.208524 -4.844060
vt 0.494524 -1.308060
vt 0.494524 -1.308060
vt 2.782520 -1.308060
vt 2.782520 -0.866056
vt 0.494524 -0.866056
vt 0.494524 -5.286060
vt 2.782520 -5.286060
vt 2.782520 -4.844060
vt 0.494524 -4.844060
vt 2.782520 -1.308060
vt 2.782520 -4.844060
vt 3.068520 -4.844060
vt 3.068520 -1.308060
vt 2.782520 -4.844060
vt 0.494524 -1.308060
vt 0.494524 -4.844060
vt 2.782520 -1.308060
vt 2.782520 -1.724060
vt 3.068520 -1.724060
vt 2.782520 -1.386060
vt 0.208524 -1.724060
vt 0.494524 -1.724060
vt 0.494524 -1.386060
vt 2.782520 -1.724060
vt 3.068520 -4.428060
vt 3.068520 -1.724060
vt 2.782520 -4.428060
vt 0.208524 -1.724060
vt 0.494524 -4.428060
vt 0.494524 -1.724060
vt 0.208524 -4.428060
vt 2.782520 -1.386060
vt 0.494524 -1.386060
vt 0.494524 -1.724060
vt 2.782520 -1.724060
vt 0.494524 -1.724060
vt 2.782520 -4.428060
vt 2.782520 -1.724060
vt 0.494524 -4.428060
vt -3.534930 6.772800
vt -3.534930 7.474800
vt -3.976930 6.772800
vt -3.976930 6.772800
vt -3.976930 1.156800
vt -3.534930 1.156800
vt -3.534930 6.772800
vt -3.534930 6.772800
vt 0.001070 6.772800
vt 0.001070 7.474800
vt -3.534930 7.474800
vt 0.001070 6.772800
vt -3.534930 6.772800
vt 0.001070 1.156800
vt -3.534930 1.156800
vt -0.622930 6.174790
vt -2.910930 6.174800
vt -2.910930 5.732800
vt -2.910930 2.196800
vt -0.622930 2.196790
vt -0.622930 5.732790
vt -2.910930 5.732800
vt -2.910930 6.772800
vt -2.910930 7.474800
vt -3.196930 6.772800
vt -2.910930 1.156800
vt -2.910930 6.772800
vt -3.196930 6.772800
vt -2.910930 6.772800
vt -0.622930 7.474800
vt -2.910930 7.474800
vt -0.622930 1.156800
vt -2.910930 6.772800
vt -2.910930 1.156800
vt -0.622930 6.772800
vt 0.001068 6.772800
vt 0.001070 1.156800
vt 0.443070 1.156800
vt -3.534930 6.772800
vt 0.001068 7.474800
vt -3.534930 7.474800
vt 0.001068 6.772800
vt -3.534930 1.156800
vt 0.001068 6.772800
vt -3.534930 6.772800
vt 0.001070 1.156800
vt -3.196930 5.732800
vt -2.910930 5.732800
vt -2.910930 6.174800
vt -3.196930 2.196800
vt -2.910930 1.754800
vt -2.910930 2.196800
vt -0.622930 1.754800
vt -0.336930 2.196800
vt -0.622930 2.196800
vt -0.622930 6.174800
vt -0.622930 5.732800
vt -0.336930 5.732800
vt -2.910930 2.196800
vt -3.196930 5.732800
vt -3.196930 2.196800
vt -2.910930 5.732800
vt -2.910930 5.732800
vt -0.622930 5.732800
vt -0.622930 6.174800
vt -2.910930 6.174800
vt -2.910930 1.754800
vt -0.622930 1.754800
vt -0.622930 2.196800
vt -2.910930 2.196800
vt -0.622930 5.732800
vt -0.622930 2.196800
vt -0.336930 2.196800
vt -0.336930 5.732800
vt -0.622930 2.196800
vt -2.910930 5.732800
vt -2.910930 2.196800
vt -0.622930 5.732800
vt -0.622930 6.772800
vt -0.336930 6.772800
vt -0.622930 7.474800
vt -3.196930 6.772800
vt -2.910930 6.772800
vt -2.910930 7.474800
vt -0.622930 6.772800
vt -0.336930 1.156800
vt -0.336930 6.772800
vt -0.622930 1.156800
vt -3.196930 6.772800
vt -2.910930 1.156800
vt -2.910930 6.772800
vt -3.196930 1.156800
vt -0.622930 7.474800
vt -2.910930 7.474800
vt -2.910930 6.772800
vt -0.622930 6.772800
vt -2.910930 6.772800
vt -0.622930 1.156800
vt -0.622930 6.772800
vt -2.910930 1.156800
vn 0.6839 0.5817 0.4402
vn 0.8404 -0.0000 0.5420
vn 0.7636 0.6457 -0.0000
vn 0.7634 0.6459 0.0000
vn 0.7637 0.6456 -0.0000
vn 1.0000 0.0000 0.0000
vn 0.0000 0.7952 0.6063
vn 0.0000 1.0000 0.0000
vn -0.6839 0.5817 0.4402
vn -0.8404 -0.0000 0.5420
vn 0.0000 0.7953 0.6063
vn -0.0000 0.0000 1.0000
vn -0.7634 0.6459 0.0000
vn -0.7636 0.6457 -0.0000
vn -1.0000 0.0000 0.0000
vn -0.6839 -0.5817 0.4402
vn -0.6839 -0.5817 -0.4402
vn 0.6839 -0.5817 -0.4402
vn 0.6839 -0.5817 0.4402
vn -0.7637 -0.6456 -0.0000
vn -0.7636 -0.6457 -0.0000
vn -0.7634 -0.6459 0.0000
vn 0.0000 -0.7953 0.6063
vn -0.0000 -0.7952 0.6063
vn -0.0000 -0.7952 -0.6063
vn 0.0000 -0.7953 -0.6063
vn 0.7637 -0.6456 0.0000
vn 0.7634 -0.6459 0.0000
vn 0.7636 -0.6457 0.0000
vn 0.0000 -1.0000 0.0000
vn -0.6839 0.5818 -0.4402
vn 0.6839 0.5817 -0.4402
vn -0.8404 0.0000 -0.5420
vn 0.8404 0.0000 -0.5420
vn 0.0000 0.7952 -0.6063
vn -0.0000 0.7953 -0.6063
vn 0.0000 0.0000 -1.0000
vn -0.6839 -0.5818 -0.4402
vn 0.7958 0.3230 0.5121
vn 0.8404 -0.0000 0.5419
vn 0.9263 0.3767 -0.0000
vn 0.9263 0.3769 0.0000
vn 0.0000 0.5363 0.8440
vn -0.7958 0.3230 0.5121
vn 0.0000 0.5364 0.8440
vn -0.9263 0.3769 0.0000
vn -0.9263 0.3768 -0.0000
vn -0.7958 -0.3230 0.5121
vn -0.7958 -0.3230 -0.5121
vn 0.7958 -0.3231 -0.5122
vn 0.7958 -0.3231 0.5122
vn -0.9263 -0.3768 -0.0000
vn -0.9262 -0.3770 0.0000
vn -0.9263 -0.3767 0.0000
vn 0.0000 -0.5363 0.8440
vn 0.0000 -0.5364 0.8440
vn -0.0000 -0.5364 -0.8440
vn 0.0000 -0.5363 -0.8440
vn 0.9263 -0.3769 0.0000
vn 0.9263 -0.3768 0.0000
vn 0.9263 -0.3767 0.0000
vn -0.7958 0.3230 -0.5121
vn 0.7958 0.3230 -0.5121
vn 0.0000 0.5364 -0.8440
vn 0.0000 0.5363 -0.8440
usemtl Pobot1Mtl
s 1
f 1/1/1 2/2/1 3/3/1
f 4/4/2 5/5/2 6/6/2
f 6/6/2 7/7/2 4/4/2
f 8/8/3 9/9/4 10/10/5
f 10/10/5 11/11/4 8/8/3
f 12/12/6 13/13/6 14/14/6
f 14/14/6 13/13/6 15/15/6
f 16/16/7 17/17/7 18/18/7
f 19/19/8 20/20/8 21/21/8
f 19/19/8 21/21/8 22/22/8
f 23/23/9 24/24/9 25/25/9
f 26/26/10 27/27/10 28/28/10
f 29/29/11 30/30/11 31/31/11
f 32/32/12 33/33/12 34/34/12
f 33/33/12 32/32/12 35/35/12
f 36/36/10 37/37/10 38/38/10
f 39/39/13 40/40/14 41/41/13
f 40/40/14 39/39/13 42/42/14
f 43/43/15 44/44/15 45/45/15
f 44/44/15 43/43/15 46/46/15
f 47/47/16 48/48/16 49/49/16
f 50/50/17 51/51/17 52/52/17
f 53/53/18 54/54/18 55/55/18
f 56/56/19 57/57/19 58/58/19
f 59/59/20 60/60/21 61/61/22
f 60/60/21 59/59/20 62/62/22
f 63/63/23 64/64/24 65/65/24
f 63/63/23 65/65/24 66/66/23
f 67/67/25 68/68/26 69/69/25
f 67/67/25 69/69/25 70/70/25
f 71/71/27 72/72/28 73/73/29
f 73/73/29 74/74/28 71/71/27
f 75/75/30 76/76/30 77/77/30
f 76/76/30 75/75/30 78/78/30
f 79/79/31 80/80/31 81/81/31
f 82/82/32 83/83/32 84/84/32
f 85/85/33 86/86/33 87/87/33
f 86/86/33 85/85/33 88/88/33
f 89/89/34 90/90/34 91/91/34
f 90/90/34 89/89/34 92/92/34
f 93/93/35 94/94/36 95/95/35
f 93/93/35 95/95/35 96/96/35
f 97/97/37 98/98/37 99/99/37
f 98/98/37 97/97/37 100/100/37
f 101/101/1 102/102/1 103/103/1
f 104/104/2 105/105/2 106/106/2
f 106/106/2 107/107/2 104/104/2
f 108/108/3 109/109/4 110/110/5
f 110/110/5 111/111/4 108/108/3
f 112/112/6 113/113/6 114/114/6
f 114/114/6 113/113/6 115/115/6
f 116/116/7 117/117/7 118/118/7
f 119/119/8 120/120/8 121/121/8
f 119/119/8 121/121/8 122/122/8
f 123/123/9 124/124/9 125/125/9
f 126/126/10 127/127/10 128/128/10
f 129/129/11 130/130/11 131/131/11
f 132/132/12 133/133/12 134/134/12
f 133/133/12 132/132/12 135/135/12
f 136/136/10 137/137/10 138/138/10
f 139/139/13 140/140/14 141/141/13
f 140/140/14 139/139/13 142/142/14
f 143/143/15 144/144/15 145/145/15
f 144/144/15 143/143/15 146/146/15
f 147/147/16 148/148/16 149/149/16
f 150/150/38 151/151/38 152/152/38
f 153/153/18 154/154/18 155/155/18
f 156/156/19 157/157/19 158/158/19
f 159/159/20 160/160/21 161/161/22
f 160/160/21 159/159/20 162/162/22
f 163/163/23 164/164/24 165/165/24
f 163/163/23 165/165/24 166/166/23
f 167/167/25 168/168/26 169/169/25
f 167/167/25 169/169/25 170/170/25
f 171/171/27 172/172/28 173/173/29
f 173/173/29 174/174/28 171/171/27
f 175/175/30 176/176/30 177/177/30
f 176/176/30 175/175/30 178/178/30
f 179/179/31 180/180/31 181/181/31
f 182/182/32 183/183/32 184/184/32
f 185/185/33 186/186/33 187/187/33
f 186/186/33 185/185/33 188/188/33
f 189/189/34 190/190/34 191/191/34
f 190/190/34 189/189/34 192/192/34
f 193/193/35 194/194/36 195/195/35
f 193/193/35 195/195/35 196/196/35
f 197/197/37 198/198/37 199/199/37
f 198/198/37 197/197/37 200/200/37
f 201/201/39 202/202/39 203/203/39
f 204/204/2 205/205/40 206/206/2
f 206/206/2 207/207/2 204/204/2
f 208/208/41 209/209/42 210/210/41
f 210/210/41 211/211/41 208/208/41
f 212/212/6 213/213/6 214/214/6
f 214/214/6 213/213/6 215/215/6
f 216/216/43 217/217/43 218/218/43
f 219/219/8 220/220/8 221/221/8
f 219/219/8 221/221/8 222/222/8
f 223/223/44 224/224/44 225/225/44
f 226/226/10 227/227/10 228/228/10
f 229/229/45 230/230/45 231/231/45
f 232/232/12 233/233/12 234/234/12
f 233/233/12 232/232/12 235/235/12
f 236/236/10 237/237/10 238/238/10
f 239/239/46 240/240/46 241/241/47
f 240/240/46 239/239/46 242/242/47
f 243/243/15 244/244/15 245/245/15
f 244/244/15 243/243/15 246/246/15
f 247/247/48 248/248/48 249/249/48
f 250/250/49 251/251/49 252/252/49
f 253/253/50 254/254/50 255/255/50
f 256/256/51 257/257/51 258/258/51
f 259/259/52 260/260/52 261/261/53
f 260/260/52 259/259/52 262/262/54
f 263/263/55 264/264/55 265/265/56
f 263/263/55 265/265/56 266/266/56
f 267/267/57 268/268/57 269/269/57
f 267/267/57 269/269/57 270/270/58
f 271/271/59 272/272/60 273/273/61
f 273/273/61 274/274/61 271/271/59
f 275/275/30 276/276/30 277/277/30
f 276/276/30 275/275/30 278/278/30
f 279/279/62 280/280/62 281/281/62
f 282/282/63 283/283/63 284/284/63
f 285/285/33 286/286/33 287/287/33
f 286/286/33 285/285/33 288/288/33
f 289/289/34 290/290/34 291/291/34
f 290/290/34 289/289/34 292/292/34
f 293/293/64 294/294/64 295/295/64
f 293/293/64 295/295/64 296/296/65
f 297/297/37 298/298/37 299/299/37
f 298/298/37 297/297/37 300/300/37
